<svg id="Слой_1" data-name="Слой 1" xmlns="http://www.w3.org/2000/svg" viewBox="0 0 40 58"><defs><style>.cls-1{fill:#ed700e;}.cls-1,.cls-2{stroke:#ed700e;stroke-miterlimit:10;stroke-width:0.75px;}.cls-2,.cls-3{fill:none;}.cls-4{fill:#1d1d1b;}</style></defs><title>Иконки утп мобильные</title><polygon class="cls-1" points="6.41 50.01 7.32 51.86 9.36 52.16 7.88 53.6 8.23 55.63 6.41 54.67 4.58 55.63 4.93 53.6 3.45 52.16 5.49 51.86 6.41 50.01"/><polygon class="cls-1" points="15.69 50.01 16.6 51.86 18.64 52.16 17.16 53.6 17.51 55.63 15.69 54.67 13.86 55.63 14.21 53.6 12.73 52.16 14.77 51.86 15.69 50.01"/><polygon class="cls-1" points="24.97 50.01 25.88 51.86 27.92 52.16 26.44 53.6 26.79 55.63 24.97 54.67 23.14 55.63 23.49 53.6 22.01 52.16 24.05 51.86 24.97 50.01"/><polygon class="cls-2" points="34.25 50.01 35.16 51.86 37.2 52.16 35.72 53.6 36.07 55.63 34.25 54.67 32.42 55.63 32.77 53.6 31.29 52.16 33.33 51.86 34.25 50.01"/><path class="cls-3" d="M26.87,17l-1,4.29-10-2.38,1-4.29,1.38.33.43-1.78-.15,0L6.75,20.53,21.33,29.6l14.58-9.07L26,14.38l-.55,2.32ZM13.32,19.88l6,1.06-5.51,1.85Zm7,5.95-1.77-.37,2-3.18Zm5.43,0L21.84,21.5l5.78,2.06Z"/><polygon class="cls-4" points="13.32 19.88 13.85 22.79 19.36 20.94 13.32 19.88"/><polygon class="cls-4" points="25.73 25.83 27.62 23.55 21.84 21.5 25.73 25.83"/><polygon class="cls-4" points="20.29 25.83 20.5 22.28 18.52 25.46 20.29 25.83"/><path class="cls-4" d="M4.26,20.53a.85.85,0,0,0,.41.73L20.88,31.35a.9.9,0,0,0,.45.13.87.87,0,0,0,.45-.13L38,21.26a.86.86,0,0,0,0-1.47L26.46,12.62,26,14.38l9.87,6.15L21.33,29.6,6.75,20.53l11.82-7.37-2.35-.56L4.67,19.79A.85.85,0,0,0,4.26,20.53Z"/><path class="cls-4" d="M37.54,25.43a.85.85,0,1,0,.61.25A.86.86,0,0,0,37.54,25.43Z"/><path class="cls-4" d="M34.38,27.25a.85.85,0,0,0-.27,1.18.88.88,0,0,0,.73.41.87.87,0,0,0,.45-.13.86.86,0,1,0-.91-1.46Z"/><path class="cls-4" d="M26.28,32.29A.85.85,0,0,0,26,33.47a.84.84,0,0,0,.73.41.81.81,0,0,0,.45-.13.86.86,0,0,0-.91-1.46Z"/><path class="cls-4" d="M23.58,34a.87.87,0,0,0-.28,1.19.88.88,0,0,0,.74.4.84.84,0,0,0,.45-.13A.86.86,0,0,0,23.58,34Z"/><path class="cls-4" d="M29,30.61a.86.86,0,0,0,.46,1.59.84.84,0,0,0,.45-.13.86.86,0,0,0,.27-1.18A.85.85,0,0,0,29,30.61Z"/><path class="cls-4" d="M31.68,28.93a.86.86,0,0,0,.46,1.59.79.79,0,0,0,.45-.13.86.86,0,0,0-.91-1.46Z"/><path class="cls-4" d="M20.72,35.77a.87.87,0,1,0,.61-.25A.88.88,0,0,0,20.72,35.77Z"/><path class="cls-4" d="M17.9,34.24a.87.87,0,0,0,.27,1.19.93.93,0,0,0,.45.13.86.86,0,1,0-.72-1.32Z"/><path class="cls-4" d="M7.1,27.52a.86.86,0,0,0,.27,1.18.85.85,0,0,0,1.18-.28.85.85,0,1,0-1.45-.9Z"/><path class="cls-4" d="M15.2,32.57a.86.86,0,1,0,1.18-.28A.86.86,0,0,0,15.2,32.57Z"/><path class="cls-4" d="M12.5,30.88a.86.86,0,0,0,.27,1.18A.85.85,0,0,0,14,31.78a.85.85,0,1,0-1.45-.9Z"/><path class="cls-4" d="M9.79,29.2a.86.86,0,0,0,.28,1.19.93.93,0,0,0,.45.13.88.88,0,0,0,.73-.41A.87.87,0,0,0,11,28.92.88.88,0,0,0,9.79,29.2Z"/><path class="cls-4" d="M5.12,27.15a.85.85,0,0,0,.61-.25.85.85,0,0,0,0-1.22.85.85,0,0,0-.61-.25.88.88,0,0,0-.61.25.87.87,0,0,0,0,1.22A.85.85,0,0,0,5.12,27.15Z"/><path class="cls-4" d="M37.09,31.33,21.33,41.14,5.58,31.33a.86.86,0,1,0-.91,1.45l16.2,10.09a.84.84,0,0,0,.45.13.84.84,0,0,0,.46-.13L38,32.78a.85.85,0,0,0,.28-1.18A.84.84,0,0,0,37.09,31.33Z"/><path class="cls-4" d="M1.63,7.84l.46-1.91,17.38,4.14-.15.6A15.91,15.91,0,0,0,21,9.17l.17-.71L25.9,9.59l-.56,2.33,1.12.7.65-2.74,1.39.33,1-4.28-10-2.38-1,4.29,1.39.33-.16.68-18-4.29a.65.65,0,0,0-.47.08A.65.65,0,0,0,1,5L.27,8.16a.6.6,0,0,0,.08.47.57.57,0,0,0,.38.28L16.22,12.6l1.49-.93Z"/><path class="cls-4" d="M24.27,16.41l-4.76-1.14.43-1.79-1.37-.32.15,0L18.29,15l-1.38-.33-1,4.29,10,2.38,1-4.29-1.38-.33L26,14.38l-1.12-.7Z"/><polygon class="cls-4" points="24.92 13.68 26.04 14.38 26.46 12.62 25.34 11.92 24.92 13.68"/><path class="cls-4" d="M20.84,9.7l-1.52,1L19,12l-1.3-.31-1.49.93,2.5.6S21,9.62,20.84,9.7Z"/><polygon class="cls-4" points="19.67 15.61 18.55 14.92 19.81 9.61 21.03 9.91 19.67 15.61"/></svg>