<svg id="Слой_1" data-name="Слой 1" xmlns="http://www.w3.org/2000/svg" viewBox="0 0 40 58"><defs><style>.cls-1{fill:#ed700e;stroke:#ed700e;stroke-miterlimit:10;stroke-width:0.75px;}.cls-2{fill:none;}.cls-3{fill:#1d1d1b;}</style></defs><title>Иконки утп мобильные</title><polygon class="cls-1" points="5.81 50.01 6.73 51.86 8.77 52.16 7.29 53.6 7.64 55.63 5.81 54.67 3.99 55.63 4.34 53.6 2.86 52.16 4.9 51.86 5.81 50.01"/><polygon class="cls-1" points="15.09 50.01 16.01 51.86 18.05 52.16 16.57 53.6 16.92 55.63 15.09 54.67 13.27 55.63 13.62 53.6 12.14 52.16 14.18 51.86 15.09 50.01"/><polygon class="cls-1" points="24.37 50.01 25.29 51.86 27.33 52.16 25.85 53.6 26.2 55.63 24.37 54.67 22.55 55.63 22.9 53.6 21.42 52.16 23.46 51.86 24.37 50.01"/><polygon class="cls-1" points="33.65 50.01 34.57 51.86 36.61 52.16 35.13 53.6 35.48 55.63 33.65 54.67 31.83 55.63 32.18 53.6 30.7 52.16 32.74 51.86 33.65 50.01"/><path class="cls-2" d="M26.28,17l-1,4.29-10-2.38,1-4.29L17.7,15l.43-1.78-.15,0L6.16,20.53,20.74,29.6l14.58-9.07-9.87-6.15L24.9,16.7ZM12.73,19.88l6,1.06-5.51,1.85Zm7,5.95-1.78-.37,2-3.18Zm5.43,0L21.25,21.5,27,23.56Z"/><polygon class="cls-3" points="12.73 19.88 13.26 22.79 18.77 20.94 12.73 19.88"/><polygon class="cls-3" points="25.13 25.83 27.02 23.55 21.25 21.5 25.13 25.83"/><polygon class="cls-3" points="19.7 25.83 19.9 22.28 17.92 25.46 19.7 25.83"/><path class="cls-3" d="M3.66,20.53a.88.88,0,0,0,.42.73L20.29,31.35a.87.87,0,0,0,.45.13.9.9,0,0,0,.45-.13L37.4,21.26a.86.86,0,0,0,0-1.47L25.87,12.62l-.42,1.76,9.87,6.15L20.74,29.6,6.16,20.53,18,13.16l-2.36-.56L4.07,19.79A.87.87,0,0,0,3.66,20.53Z"/><path class="cls-3" d="M37,25.43a.85.85,0,0,0-.61.25.87.87,0,0,0,0,1.22.85.85,0,0,0,.61.25.86.86,0,0,0,.61-.25.87.87,0,0,0,0-1.22A.86.86,0,0,0,37,25.43Z"/><path class="cls-3" d="M33.79,27.25a.85.85,0,0,0-.27,1.18.86.86,0,0,0,.73.41.9.9,0,0,0,.45-.13A.87.87,0,0,0,35,27.52.85.85,0,0,0,33.79,27.25Z"/><path class="cls-3" d="M25.69,32.29a.85.85,0,0,0-.28,1.18.87.87,0,0,0,.74.41.84.84,0,0,0,.45-.13.86.86,0,0,0-.91-1.46Z"/><path class="cls-3" d="M23,34a.86.86,0,0,0,.46,1.59.79.79,0,0,0,.45-.13.85.85,0,0,0,.28-1.18A.86.86,0,0,0,23,34Z"/><path class="cls-3" d="M28.39,30.61a.86.86,0,0,0,.45,1.59.79.79,0,0,0,.45-.13.86.86,0,1,0-.9-1.46Z"/><path class="cls-3" d="M31.09,28.93a.86.86,0,0,0-.28,1.18.89.89,0,0,0,.74.41.84.84,0,0,0,.45-.13.86.86,0,0,0-.91-1.46Z"/><path class="cls-3" d="M20.13,35.77a.87.87,0,1,0,.61-.25A.86.86,0,0,0,20.13,35.77Z"/><path class="cls-3" d="M17.3,34.24a.86.86,0,0,0,.28,1.19.93.93,0,0,0,.45.13.88.88,0,0,0,.73-.41.86.86,0,1,0-1.46-.91Z"/><path class="cls-3" d="M6.5,27.52a.85.85,0,0,0,.28,1.18.84.84,0,0,0,.45.13.86.86,0,1,0-.73-1.31Z"/><path class="cls-3" d="M14.61,32.57a.86.86,0,0,0,.27,1.18.85.85,0,0,0,1.18-.28.85.85,0,1,0-1.45-.9Z"/><path class="cls-3" d="M11.9,30.88a.85.85,0,0,0,.28,1.18.84.84,0,0,0,.45.13.86.86,0,0,0,.73-.41.85.85,0,0,0-.28-1.18A.87.87,0,0,0,11.9,30.88Z"/><path class="cls-3" d="M9.2,29.2a.87.87,0,0,0,.27,1.19.93.93,0,0,0,.45.13.87.87,0,0,0,.46-1.6A.87.87,0,0,0,9.2,29.2Z"/><path class="cls-3" d="M4.53,27.15a.85.85,0,1,0-.61-.25A.84.84,0,0,0,4.53,27.15Z"/><path class="cls-3" d="M36.49,31.33,20.74,41.14,5,31.33a.85.85,0,0,0-1.18.27.86.86,0,0,0,.27,1.18L20.28,42.87a.81.81,0,0,0,.45.13.79.79,0,0,0,.45-.13L37.39,32.78a.86.86,0,0,0,.27-1.18A.83.83,0,0,0,36.49,31.33Z"/><path class="cls-3" d="M1,7.84,1.5,5.93l17.37,4.14-.14.6a14.83,14.83,0,0,0,1.64-1.5l.17-.71L25.3,9.59l-.55,2.33,1.12.7.65-2.74,1.39.33,1-4.28L19,3.55l-1,4.29,1.38.33-.16.68-18-4.29a.67.67,0,0,0-.48.08A.65.65,0,0,0,.42,5L-.32,8.16a.6.6,0,0,0,.07.47.61.61,0,0,0,.39.28L15.62,12.6l1.49-.93Z"/><path class="cls-3" d="M23.68,16.41l-4.76-1.14.43-1.79L18,13.16l.15,0L17.7,15l-1.39-.33-1,4.29,10,2.38,1-4.29L24.9,16.7l.55-2.32-1.12-.7Z"/><polygon class="cls-3" points="24.33 13.68 25.45 14.38 25.87 12.62 24.75 11.92 24.33 13.68"/><path class="cls-3" d="M20.24,9.7l-1.51,1L18.42,12l-1.31-.31-1.49.93,2.51.6S20.38,9.62,20.24,9.7Z"/><polygon class="cls-3" points="19.08 15.61 17.95 14.92 19.22 9.61 20.43 9.91 19.08 15.61"/></svg>