<svg id="Слой_1" data-name="Слой 1" xmlns="http://www.w3.org/2000/svg" viewBox="0 0 40 58"><defs><style>.cls-1{fill:#1d1d1b;}.cls-2{fill:#ed700e;}.cls-2,.cls-3{stroke:#ed700e;stroke-miterlimit:10;stroke-width:0.75px;}.cls-3{fill:none;}</style></defs><title>Иконки утп мобильные</title><path class="cls-1" d="M30,21.93,38.53,8.47a.76.76,0,0,0-.24-1L28.07.94a.81.81,0,0,0-.57-.1.83.83,0,0,0-.47.33L14.75,20.54a.75.75,0,0,0,.23,1l5.86,3.72a.75.75,0,0,0,.57.09l7-1.55a3.3,3.3,0,0,0,.31-.23Zm-2.08.47-6.52,1.46-5-3.15,4-6.24,9,5.68Z"/><polygon class="cls-1" points="16.18 26.5 17.46 29.22 22.38 25.98 16.18 26.5"/><polygon class="cls-1" points="21.34 28.23 22.88 29.23 24.41 25.97 21.34 28.23"/><path class="cls-1" d="M4.26,24.13,20.7,34.36a.88.88,0,0,0,.92,0L38.05,24.13a.86.86,0,0,0,0-1.48L21.62,12.41a.91.91,0,0,0-.93,0L4.26,22.65a.86.86,0,0,0-.42.74.9.9,0,0,0,.42.74Zm16.9-9.95,14.78,9.21-14.78,9.2L6.37,23.39Zm0,0"/><path class="cls-1" d="M37.59,28.36a.89.89,0,1,0,.62.26.87.87,0,0,0-.62-.26Zm0,0"/><path class="cls-1" d="M34.39,30.2a.87.87,0,0,0-.27,1.2.89.89,0,0,0,.74.42.86.86,0,0,0,.46-.14.87.87,0,0,0-.93-1.48Zm0,0"/><path class="cls-1" d="M26.18,35.31a.88.88,0,0,0,.46,1.62.94.94,0,0,0,.46-.13.88.88,0,0,0-.92-1.49Zm0,0"/><path class="cls-1" d="M23.43,37a.88.88,0,0,0,.47,1.62.94.94,0,0,0,.46-.13A.88.88,0,0,0,23.43,37Zm0,0"/><path class="cls-1" d="M28.92,33.61a.87.87,0,1,0,.91,1.49.87.87,0,0,0,.28-1.2.86.86,0,0,0-1.19-.29Zm0,0"/><path class="cls-1" d="M31.65,31.91a.86.86,0,0,0-.27,1.2.88.88,0,0,0,.74.41.84.84,0,0,0,.46-.13.87.87,0,0,0-.93-1.48Zm0,0"/><path class="cls-1" d="M20.54,38.85a.88.88,0,0,0,0,1.23.87.87,0,0,0,1.24,0,.88.88,0,0,0,0-1.23.9.9,0,0,0-.62-.26.91.91,0,0,0-.62.26Zm0,0"/><path class="cls-1" d="M17.67,37.3A.87.87,0,0,0,18,38.5a.87.87,0,0,0,1.2-.28A.88.88,0,0,0,18.87,37a.89.89,0,0,0-1.2.29Zm0,0"/><path class="cls-1" d="M6.72,30.48A.88.88,0,0,0,7,31.68a.94.94,0,0,0,.46.13.87.87,0,1,0-.74-1.33Zm0,0"/><path class="cls-1" d="M14.94,35.6a.88.88,0,0,0,.28,1.2.93.93,0,0,0,.45.13.87.87,0,1,0-.73-1.33Zm0,0"/><path class="cls-1" d="M12.2,33.89a.87.87,0,0,0,.28,1.2.84.84,0,0,0,.45.13.89.89,0,0,0,.75-.42.87.87,0,1,0-1.48-.91Zm0,0"/><path class="cls-1" d="M9.46,32.19a.87.87,0,0,0,.27,1.2,1,1,0,0,0,.46.13.86.86,0,0,0,.74-.42.87.87,0,0,0-.27-1.2.88.88,0,0,0-1.2.29Zm0,0"/><path class="cls-1" d="M4.72,30.11a.88.88,0,0,0,0-1.75.9.9,0,0,0-.62.26.88.88,0,0,0,.62,1.49Zm0,0"/><path class="cls-1" d="M37.14,34.34l-16,9.95-16-9.95a.87.87,0,0,0-1.2.28.88.88,0,0,0,.28,1.2L20.69,46.05a.88.88,0,0,0,.92,0L38,35.82a.87.87,0,0,0,.28-1.2.84.84,0,0,0-1.18-.28Zm0,0"/><polygon class="cls-2" points="7.32 50.7 8.24 52.55 10.28 52.85 8.8 54.29 9.15 56.32 7.32 55.36 5.5 56.32 5.85 54.29 4.37 52.85 6.41 52.55 7.32 50.7"/><polygon class="cls-2" points="16.6 50.7 17.52 52.55 19.56 52.85 18.08 54.29 18.43 56.32 16.6 55.36 14.78 56.32 15.13 54.29 13.65 52.85 15.69 52.55 16.6 50.7"/><polygon class="cls-3" points="25.88 50.7 26.8 52.55 28.84 52.85 27.36 54.29 27.71 56.32 25.88 55.36 24.06 56.32 24.41 54.29 22.93 52.85 24.97 52.55 25.88 50.7"/><polygon class="cls-3" points="35.16 50.7 36.08 52.55 38.12 52.85 36.64 54.29 36.99 56.32 35.16 55.36 33.34 56.32 33.69 54.29 32.21 52.85 34.25 52.55 35.16 50.7"/></svg>