<svg id="Слой_1" data-name="Слой 1" xmlns="http://www.w3.org/2000/svg" viewBox="0 0 60 80"><title>Иконки утп</title><path d="M30,47l9.61-9.59c-.54,0-1,0-1.4,0a.94.94,0,0,1-1-.92.91.91,0,0,1,1-.93c1.53,0,3.06,0,4.7,0v2.17c0,.84,0,1.69,0,2.54a.91.91,0,0,1-1,1,.88.88,0,0,1-.88-1c0-.44,0-.87,0-1.39l-8.64,8.64H45.48c.73,0,1.12.34,1.12.89s-.41.92-1.1.93H41.89l-19.35,0H14.62c-.81,0-1.19-.28-1.2-.86s.42-1,1.22-1l12.08,0h.91l.16-.21c-.47-.4-1-.79-1.4-1.22Q22.21,42,18,37.78c-.2-.2-.41-.4-.59-.62a.92.92,0,1,1,1.31-1.29c.81.79,1.61,1.59,2.4,2.39l8.39,8.39C29.69,46.79,29.83,46.9,30,47Z"/><path d="M30.11,12.22a9.55,9.55,0,0,1,9.46,10.09,9.57,9.57,0,0,1-19.12-.92A9.51,9.51,0,0,1,30.11,12.22Zm8,9.57a8.06,8.06,0,0,0-8.47-8.13,8.13,8.13,0,1,0,8.47,8.13Z"/><path d="M27.71,32.73h4.62L30,38.38Z"/><path d="M20.51,28.16l3.11,3.1-5.34,2.25Z"/><path d="M13.39,21.78l5.66-2.32v4.61Z"/><path d="M39.55,28.28l2.21,5.23-5.29-2.2Z"/><path d="M41,19.48l5.64,2.29L41,24.09Z"/><path d="M30,5.17l2.3,5.64H27.69Z"/><path d="M36.48,12.25,41.75,10l-2.23,5.31Z"/><path d="M18.31,10.13c.23.06.32.07.4.1l4.8,2-3,3.06Z"/><path d="M20.35,16.44l-.94,2.11L17,16.44Z"/><path d="M43.09,16.42l-2.42,2.25-1-2.25Z"/><path d="M39.64,27.14l1-2.13L43,27.14Z"/><path d="M24.62,34.6V31.43l2.18,1-2.05,2.33Z"/><path d="M35.38,34.69l-2.33-2.22,2.33-1Z"/><path d="M35.42,12.13l-2.36-1.05,2.36-2.24Z"/><path d="M27,11.08l-2.32,1V8.88Z"/><path d="M17.34,26.93l2-2.13,1,2.32H17.4Z"/><path d="M27.88,18.64c.26,0,.44-.06.63-.07s.51,0,.8,0a3.78,3.78,0,0,1,.08.51c0,1.17,0,2.35,0,3.53a2,2,0,0,1-1.19,2.13,2.81,2.81,0,0,1-2.95-.29,2.14,2.14,0,0,1-.67-1.4c-.08-1.45,0-2.91,0-4.42H26v4.08c0,.54.13,1,.77,1.09s1.05-.25,1.07-1.06C27.9,21.4,27.88,20.06,27.88,18.64Z"/><path d="M35.46,18.65c-.61,2-1.19,4-1.81,5.9a.6.6,0,0,1-.46.29c-1.41.13-1.4.12-1.78-1.26-.23-.81-.49-1.61-.73-2.43s-.47-1.61-.74-2.54a7.91,7.91,0,0,1,1.3,0c.15,0,.33.28.38.46.36,1.31.69,2.63,1.09,4.15.35-1.29.64-2.38.94-3.47S34,18.53,35.46,18.65Z"/><path d="M7.8,63.39,8.87,60.6h1L8,65l-.17.34A1.26,1.26,0,0,1,6.69,66l-.38,0v-.74l.32,0a.56.56,0,0,0,.55-.34l.19-.45L5.55,60.6h1Z"/><path d="M11.9,65.29a.83.83,0,0,0,.56-.19.69.69,0,0,0,.23-.48h.84a1.32,1.32,0,0,1-.23.69,1.63,1.63,0,0,1-.59.51,1.8,1.8,0,0,1-.8.18,1.73,1.73,0,0,1-1.32-.53A2.17,2.17,0,0,1,10.11,64v-.09a2.1,2.1,0,0,1,.48-1.45,1.68,1.68,0,0,1,1.32-.54,1.61,1.61,0,0,1,1.15.41,1.47,1.47,0,0,1,.47,1.08h-.84a.84.84,0,0,0-.23-.56.75.75,0,0,0-.56-.22.76.76,0,0,0-.66.31,1.56,1.56,0,0,0-.24.95V64a1.66,1.66,0,0,0,.23,1A.77.77,0,0,0,11.9,65.29Z"/><path d="M17.32,62.67H16v3.26h-.89V62.67H13.87V62h3.45Z"/><path d="M17.63,63.91a2.38,2.38,0,0,1,.23-1,1.66,1.66,0,0,1,.65-.71,1.81,1.81,0,0,1,1-.25,1.72,1.72,0,0,1,1.3.51,2,2,0,0,1,.54,1.37V64A2.38,2.38,0,0,1,21.09,65a1.69,1.69,0,0,1-.64.71,1.85,1.85,0,0,1-1,.25,1.71,1.71,0,0,1-1.34-.55A2.14,2.14,0,0,1,17.63,64Zm.89.08a1.59,1.59,0,0,0,.26,1,.88.88,0,0,0,1.4,0,1.74,1.74,0,0,0,.25-1,1.6,1.6,0,0,0-.26-.95.82.82,0,0,0-.7-.35.79.79,0,0,0-.69.35A1.72,1.72,0,0,0,18.52,64Z"/><path d="M24.54,62h.89v4h-.89V63.29L23,65.93H22.1V62H23v2.64ZM25,60.45a1,1,0,0,1-.32.75,1.25,1.25,0,0,1-.86.28,1.24,1.24,0,0,1-.86-.28,1,1,0,0,1-.32-.75h.66a.5.5,0,0,0,.14.37.59.59,0,0,0,.76,0,.49.49,0,0,0,.13-.37Z"/><path d="M29.55,65.93h-.89V64.61a3.38,3.38,0,0,1-.72.08,1.77,1.77,0,0,1-1.24-.39,1.42,1.42,0,0,1-.43-1.12V62h.89v1.22a.8.8,0,0,0,.19.61.83.83,0,0,0,.59.18,3.53,3.53,0,0,0,.72-.08V62h.89Z"/><path d="M33,62h.89v4H33V63.29l-1.55,2.64h-.89V62h.89v2.64Z"/><path d="M34.87,65.93V62h1.61a2.23,2.23,0,0,1,1.24.28.93.93,0,0,1,.42.82.75.75,0,0,1-.17.49,1,1,0,0,1-.5.33,1.24,1.24,0,0,1,.62.33.82.82,0,0,1,.22.58.94.94,0,0,1-.41.84,2,2,0,0,1-1.17.29Zm.89-2.32h.74q.75,0,.75-.45c0-.31-.23-.47-.71-.49h-.78Zm0,.63v1h1c.45,0,.68-.17.68-.49s-.23-.5-.69-.5Z"/><path d="M38.91,63.91a2.38,2.38,0,0,1,.23-1,1.66,1.66,0,0,1,.65-.71,1.81,1.81,0,0,1,1-.25,1.72,1.72,0,0,1,1.3.51,2,2,0,0,1,.54,1.37V64A2.38,2.38,0,0,1,42.37,65a1.69,1.69,0,0,1-.64.71,1.82,1.82,0,0,1-1,.25,1.71,1.71,0,0,1-1.34-.55A2.14,2.14,0,0,1,38.91,64Zm.89.08a1.59,1.59,0,0,0,.26,1,.88.88,0,0,0,1.4,0,1.74,1.74,0,0,0,.25-1,1.53,1.53,0,0,0-.26-.95.82.82,0,0,0-.7-.35.79.79,0,0,0-.69.35A1.72,1.72,0,0,0,39.8,64Z"/><path d="M45,65.29a.8.8,0,0,0,.55-.19.65.65,0,0,0,.23-.48h.84a1.24,1.24,0,0,1-.23.69,1.6,1.6,0,0,1-.58.51A1.84,1.84,0,0,1,45,66a1.7,1.7,0,0,1-1.32-.53A2.13,2.13,0,0,1,43.18,64v-.09a2.05,2.05,0,0,1,.49-1.45A1.67,1.67,0,0,1,45,61.9a1.62,1.62,0,0,1,1.16.41,1.46,1.46,0,0,1,.46,1.08h-.84a.79.79,0,0,0-.23-.56.72.72,0,0,0-.55-.22.79.79,0,0,0-.67.31,1.64,1.64,0,0,0-.24.95V64a1.58,1.58,0,0,0,.24,1A.76.76,0,0,0,45,65.29Z"/><path d="M50.39,62.67H49.11v3.26h-.89V62.67H47V62h3.44Z"/><path d="M51.94,63.23h.87a1.87,1.87,0,0,1,.85.17,1.17,1.17,0,0,1,.55.47,1.28,1.28,0,0,1,.19.71,1.23,1.23,0,0,1-.43,1,1.74,1.74,0,0,1-1.15.37H51.05V62h.89Zm0,.71v1.28h.87a.77.77,0,0,0,.52-.16.61.61,0,0,0,.18-.47.63.63,0,0,0-.18-.47.68.68,0,0,0-.5-.18Z"/><path d="M3.09,72.36H2.64v1.57H1.75V70h.89v1.58H3L4.12,70h1.1l-1.43,1.9,1.55,2.06H4.19Z"/><path d="M9.7,71.39l1.07-2.79h1L10,73l-.17.34A1.27,1.27,0,0,1,8.59,74l-.38,0v-.74l.31,0a.55.55,0,0,0,.55-.34l.2-.45L7.45,68.6h1Z"/><path d="M15.42,69.1h.08a2.35,2.35,0,0,1,1.12.28,2,2,0,0,1,.78.78,2.4,2.4,0,0,1,0,2.25,1.93,1.93,0,0,1-.78.77,2.29,2.29,0,0,1-1.11.28h-.09v.69h-.89v-.69h-.09a2.22,2.22,0,0,1-1.12-.28,2,2,0,0,1-.79-.77,2.28,2.28,0,0,1-.27-1.11,2.23,2.23,0,0,1,.28-1.13,1.91,1.91,0,0,1,.78-.79,2.3,2.3,0,0,1,1.12-.28h.09v-.72h.89Zm-1,.75a1.21,1.21,0,0,0-1,.39,1.5,1.5,0,0,0-.35,1.06,1.48,1.48,0,0,0,.35,1,1.25,1.25,0,0,0,1,.38h.08V69.85Zm1,0v2.86h.08a1.23,1.23,0,0,0,1-.38,1.74,1.74,0,0,0,0-2.09,1.22,1.22,0,0,0-1-.39Z"/><path d="M22.74,70h.88v4h-.88V71.29l-1.56,2.64H20.3V70h.88v2.64Z"/><path d="M27.57,71.05a.8.8,0,0,1-.16.49,1,1,0,0,1-.45.35.91.91,0,0,1,.68.92,1,1,0,0,1-.44.87A1.93,1.93,0,0,1,26,74a2.18,2.18,0,0,1-.82-.15,1.32,1.32,0,0,1-.59-.43,1.15,1.15,0,0,1-.2-.67h.88a.48.48,0,0,0,.22.41.85.85,0,0,0,.54.16.82.82,0,0,0,.52-.15.56.56,0,0,0,0-.81.85.85,0,0,0-.52-.13h-.64v-.64h.66c.4,0,.59-.17.59-.49a.44.44,0,0,0-.17-.38.73.73,0,0,0-.47-.14.77.77,0,0,0-.49.15.42.42,0,0,0-.21.36h-.88a1,1,0,0,1,.44-.86A1.79,1.79,0,0,1,26,69.9a1.9,1.9,0,0,1,1.15.3A1,1,0,0,1,27.57,71.05Z"/><path d="M31.77,70v4h-.89V70.69H29.76l-.08,1.38a2.79,2.79,0,0,1-.38,1.43,1.1,1.1,0,0,1-1,.43h-.27v-.74l.18,0a.5.5,0,0,0,.42-.35,3.72,3.72,0,0,0,.17-1.16L28.92,70Z"/><path d="M34.1,72.66,34.91,70h.94l-1.57,4.56a1.27,1.27,0,0,1-1.23,1,1.42,1.42,0,0,1-.43-.07v-.69h.17a.92.92,0,0,0,.51-.12.86.86,0,0,0,.27-.41l.12-.34L32.3,70h1Z"/><path d="M39.54,73.93h-.89V72.61a3.38,3.38,0,0,1-.72.08,1.77,1.77,0,0,1-1.24-.39,1.42,1.42,0,0,1-.43-1.12V70h.89v1.22a.8.8,0,0,0,.19.61.83.83,0,0,0,.59.18,3.53,3.53,0,0,0,.72-.08V70h.89Z"/><path d="M42.24,74a1.83,1.83,0,0,1-1.38-.53,1.93,1.93,0,0,1-.52-1.42v-.11a2.29,2.29,0,0,1,.23-1.06,1.66,1.66,0,0,1,.64-.72,1.64,1.64,0,0,1,.92-.26,1.56,1.56,0,0,1,1.25.51,2.16,2.16,0,0,1,.44,1.46v.36H41.24a1.16,1.16,0,0,0,.32.78,1,1,0,0,0,.73.28,1.19,1.19,0,0,0,1-.49l.48.46a1.68,1.68,0,0,1-.63.55A2,2,0,0,1,42.24,74Zm-.11-3.39a.71.71,0,0,0-.59.26,1.29,1.29,0,0,0-.29.71H43v-.07a1.07,1.07,0,0,0-.24-.67A.75.75,0,0,0,42.13,70.61Z"/><path d="M47.87,73.93H47v-1.6H45.44v1.6h-.89V70h.89v1.65H47V70h.89Z"/><path d="M51.29,70h.89v4h-.89V71.29l-1.55,2.64h-.89V70h.89v2.64Z"/><path d="M54.09,71.56h.75a1.93,1.93,0,0,1,.58-1.21,1.76,1.76,0,0,1,1.23-.45,1.72,1.72,0,0,1,1.3.51,2,2,0,0,1,.54,1.37V72A2.38,2.38,0,0,1,58.27,73a1.69,1.69,0,0,1-.64.71,1.82,1.82,0,0,1-1,.25,1.73,1.73,0,0,1-1.26-.47,2,2,0,0,1-.57-1.25h-.74v1.65H53.2V70h.89ZM55.7,72A1.59,1.59,0,0,0,56,73a.81.81,0,0,0,.7.34.8.8,0,0,0,.7-.35,1.74,1.74,0,0,0,.25-1,1.58,1.58,0,0,0-.26-1A.87.87,0,0,0,56,71,1.72,1.72,0,0,0,55.7,72Z"/></svg>