<svg id="Слой_1" data-name="Слой 1" xmlns="http://www.w3.org/2000/svg" viewBox="0 0 40 58"><defs><style>.cls-1{fill:#1d1d1b;}.cls-2{fill:#ed700e;}.cls-2,.cls-3{stroke:#ed700e;stroke-miterlimit:10;stroke-width:0.75px;}.cls-3{fill:none;}</style></defs><title>Иконки утп мобильные</title><path class="cls-1" d="M29.06,21.93,37.61,8.47a.76.76,0,0,0-.23-1L27.16.94a.82.82,0,0,0-.57-.1.77.77,0,0,0-.47.33L13.83,20.54a.76.76,0,0,0,.23,1l5.86,3.72a.76.76,0,0,0,.57.09l7-1.55a3.13,3.13,0,0,0,.32-.23ZM27,22.4l-6.52,1.46-5-3.15,4-6.24,9,5.68Z"/><polygon class="cls-1" points="15.27 26.5 16.54 29.22 21.46 25.98 15.27 26.5"/><polygon class="cls-1" points="20.43 28.23 21.96 29.23 23.49 25.97 20.43 28.23"/><path class="cls-1" d="M3.35,24.13,19.78,34.36a.88.88,0,0,0,.92,0L37.14,24.13a.89.89,0,0,0,.41-.74.86.86,0,0,0-.41-.74L20.7,12.41a.89.89,0,0,0-.92,0L3.34,22.65a.87.87,0,0,0,0,1.48Zm16.89-9.95L35,23.39l-14.79,9.2L5.46,23.39Zm0,0"/><path class="cls-1" d="M36.68,28.36a.88.88,0,0,0,0,1.75.9.9,0,0,0,.62-.26.88.88,0,0,0,0-1.23.9.9,0,0,0-.62-.26Zm0,0"/><path class="cls-1" d="M33.48,30.2a.87.87,0,0,0-.28,1.2.9.9,0,0,0,.74.42.86.86,0,0,0,.46-.14.87.87,0,1,0-.92-1.48Zm0,0"/><path class="cls-1" d="M25.26,35.31a.87.87,0,0,0-.28,1.2.87.87,0,1,0,.28-1.2Zm0,0"/><path class="cls-1" d="M22.52,37A.88.88,0,0,0,23,38.64a.94.94,0,0,0,.46-.13A.88.88,0,0,0,22.52,37Zm0,0"/><path class="cls-1" d="M28,33.61a.88.88,0,0,0,.46,1.62.94.94,0,0,0,.46-.13.87.87,0,0,0,.27-1.2A.85.85,0,0,0,28,33.61Zm0,0"/><path class="cls-1" d="M30.74,31.91a.86.86,0,0,0-.28,1.2.89.89,0,0,0,.74.41.84.84,0,0,0,.46-.13.87.87,0,0,0-.92-1.48Zm0,0"/><path class="cls-1" d="M19.62,38.85a.88.88,0,0,0,0,1.23.87.87,0,0,0,1.24,0,.88.88,0,0,0,0-1.23.9.9,0,0,0-.62-.26.91.91,0,0,0-.62.26Zm0,0"/><path class="cls-1" d="M16.76,37.3A.87.87,0,0,0,17,38.5a.89.89,0,0,0,.46.13.87.87,0,1,0-.73-1.33Zm0,0"/><path class="cls-1" d="M5.81,30.48a.87.87,0,0,0,.27,1.2,1,1,0,0,0,.46.13.86.86,0,0,0,.74-.42.86.86,0,1,0-1.47-.91Zm0,0"/><path class="cls-1" d="M14,35.6a.88.88,0,0,0,.28,1.2,1,1,0,0,0,.46.13A.87.87,0,1,0,14,35.6Zm0,0"/><path class="cls-1" d="M11.28,33.89a.87.87,0,0,0,.28,1.2.84.84,0,0,0,.46.13.88.88,0,0,0,.46-1.62.89.89,0,0,0-1.2.29Zm0,0"/><path class="cls-1" d="M8.54,32.19a.88.88,0,0,0,.28,1.2.94.94,0,0,0,.46.13.88.88,0,0,0,.46-1.62.89.89,0,0,0-1.2.29Zm0,0"/><path class="cls-1" d="M3.81,30.11a.89.89,0,1,0-.62-.26.85.85,0,0,0,.62.26Zm0,0"/><path class="cls-1" d="M36.22,34.34l-16,9.95-16-9.95a.87.87,0,0,0-1.2.28.88.88,0,0,0,.28,1.2L19.78,46.05a.87.87,0,0,0,.45.13.94.94,0,0,0,.46-.13L37.13,35.82a.87.87,0,0,0,.27-1.2.84.84,0,0,0-1.18-.28Zm0,0"/><polygon class="cls-2" points="6.41 50.7 7.32 52.55 9.36 52.85 7.88 54.29 8.23 56.32 6.41 55.36 4.58 56.32 4.93 54.29 3.45 52.85 5.49 52.55 6.41 50.7"/><polygon class="cls-2" points="15.69 50.7 16.6 52.55 18.64 52.85 17.16 54.29 17.51 56.32 15.69 55.36 13.86 56.32 14.21 54.29 12.73 52.85 14.77 52.55 15.69 50.7"/><polygon class="cls-2" points="24.97 50.7 25.88 52.55 27.92 52.85 26.44 54.29 26.79 56.32 24.97 55.36 23.14 56.32 23.49 54.29 22.01 52.85 24.05 52.55 24.97 50.7"/><polygon class="cls-3" points="34.25 50.7 35.16 52.55 37.2 52.85 35.72 54.29 36.07 56.32 34.25 55.36 32.42 56.32 32.77 54.29 31.29 52.85 33.33 52.55 34.25 50.7"/></svg>