<svg id="Слой_1" data-name="Слой 1" xmlns="http://www.w3.org/2000/svg" viewBox="0 0 60 80"><defs><style>.cls-1{fill:none;}</style></defs><title>Иконки утп</title><path d="M7.44,57.6v4.59H9.07V57.6H10v4.59h1.62V57.6h.92v5.33h-6V57.6Z"/><path d="M15.29,63a1.81,1.81,0,0,1-1.37-.53,1.93,1.93,0,0,1-.53-1.42v-.11a2.43,2.43,0,0,1,.23-1.06,1.73,1.73,0,0,1,.64-.72,1.68,1.68,0,0,1,.93-.26,1.57,1.57,0,0,1,1.25.51,2.21,2.21,0,0,1,.44,1.46v.36H14.29a1.17,1.17,0,0,0,.33.78,1,1,0,0,0,.72.28,1.21,1.21,0,0,0,1-.49l.48.46a1.64,1.64,0,0,1-.64.55A2,2,0,0,1,15.29,63Zm-.11-3.39a.73.73,0,0,0-.59.26,1.29,1.29,0,0,0-.29.71H16v-.07a1.07,1.07,0,0,0-.24-.67A.75.75,0,0,0,15.18,59.61Z"/><path d="M20.94,59v4h-.89V59.69H18.92l-.07,1.38a2.79,2.79,0,0,1-.38,1.43,1.1,1.1,0,0,1-1,.43h-.27v-.74l.19,0a.51.51,0,0,0,.42-.35A3.72,3.72,0,0,0,18,60.66L18.09,59Z"/><path d="M23.29,61.36h-.45v1.57H22V59h.89v1.58h.39L24.33,59h1.1L24,60.87l1.56,2.06H24.39Z"/><path d="M25.66,60.91a2.38,2.38,0,0,1,.23-1,1.6,1.6,0,0,1,.65-.71,1.81,1.81,0,0,1,1-.25,1.74,1.74,0,0,1,1.3.51,2.07,2.07,0,0,1,.54,1.37V61a2.38,2.38,0,0,1-.22,1,1.72,1.72,0,0,1-.65.71,1.82,1.82,0,0,1-1,.25,1.74,1.74,0,0,1-1.34-.55,2.18,2.18,0,0,1-.5-1.49Zm.89.08a1.59,1.59,0,0,0,.25,1,.83.83,0,0,0,.7.34.81.81,0,0,0,.71-.35,1.82,1.82,0,0,0,.25-1A1.6,1.6,0,0,0,28.2,60a.84.84,0,0,0-.7-.35.79.79,0,0,0-.69.35A1.65,1.65,0,0,0,26.55,61Z"/><path d="M30.16,62.93V59h1.61a2.23,2.23,0,0,1,1.24.28.93.93,0,0,1,.42.82.75.75,0,0,1-.17.49,1,1,0,0,1-.5.33,1.24,1.24,0,0,1,.62.33.82.82,0,0,1,.22.58.94.94,0,0,1-.41.84,2,2,0,0,1-1.17.29Zm.89-2.32h.74q.75,0,.75-.45c0-.31-.24-.47-.71-.49h-.78Zm0,.63v1h1c.45,0,.68-.17.68-.49s-.23-.5-.69-.5Z"/><path d="M36.84,59h.89v4h-.89V60.29l-1.55,2.64H34.4V59h.89v2.64Z"/><path d="M40.3,62.29a.81.81,0,0,0,.56-.19.69.69,0,0,0,.23-.48h.84a1.32,1.32,0,0,1-.23.69,1.63,1.63,0,0,1-.59.51,1.77,1.77,0,0,1-.8.18A1.69,1.69,0,0,1,39,62.47,2.13,2.13,0,0,1,38.51,61v-.09A2.1,2.1,0,0,1,39,59.44a1.68,1.68,0,0,1,1.32-.54,1.59,1.59,0,0,1,1.15.41,1.43,1.43,0,0,1,.47,1.08h-.84a.84.84,0,0,0-.23-.56.75.75,0,0,0-.56-.22.77.77,0,0,0-.66.31,1.56,1.56,0,0,0-.24.95V61a1.66,1.66,0,0,0,.23,1A.79.79,0,0,0,40.3,62.29Z"/><path d="M45.72,59.67H44.43v3.26h-.89V59.67H42.27V59h3.45Z"/><path d="M46,60.91a2.25,2.25,0,0,1,.23-1,1.64,1.64,0,0,1,.64-.71,1.81,1.81,0,0,1,1-.25,1.76,1.76,0,0,1,1.31.51,2.07,2.07,0,0,1,.54,1.37V61a2.38,2.38,0,0,1-.23,1,1.69,1.69,0,0,1-.64.71,1.82,1.82,0,0,1-1,.25,1.72,1.72,0,0,1-1.34-.55A2.13,2.13,0,0,1,46,61Zm.89.08a1.59,1.59,0,0,0,.25,1,.81.81,0,0,0,.7.34.79.79,0,0,0,.7-.35,1.74,1.74,0,0,0,.25-1,1.6,1.6,0,0,0-.25-.95.85.85,0,0,0-.71-.35.79.79,0,0,0-.69.35A1.72,1.72,0,0,0,46.93,61Z"/><path d="M52.22,63a1.81,1.81,0,0,1-1.37-.53,1.93,1.93,0,0,1-.53-1.42v-.11a2.43,2.43,0,0,1,.23-1.06,1.73,1.73,0,0,1,.64-.72,1.68,1.68,0,0,1,.93-.26,1.58,1.58,0,0,1,1.25.51,2.21,2.21,0,0,1,.44,1.46v.36H51.22a1.12,1.12,0,0,0,.33.78,1,1,0,0,0,.72.28,1.18,1.18,0,0,0,1-.49l.49.46a1.71,1.71,0,0,1-.64.55A2,2,0,0,1,52.22,63Zm-.11-3.39a.73.73,0,0,0-.59.26,1.29,1.29,0,0,0-.29.71h1.7v-.07a1.07,1.07,0,0,0-.24-.67A.75.75,0,0,0,52.11,59.61Z"/><path d="M17.77,68.84,18.94,66h1.12v4h-.89V67.31l-1.09,2.62h-.61l-1.09-2.64v2.64h-.89V66h1.12Z"/><path d="M23.42,69.93a1.44,1.44,0,0,1-.1-.37,1.5,1.5,0,0,1-2,.1,1,1,0,0,1-.38-.84,1.13,1.13,0,0,1,.47-1,2.24,2.24,0,0,1,1.35-.34h.54v-.26a.69.69,0,0,0-.17-.49.67.67,0,0,0-.52-.19.78.78,0,0,0-.5.15.49.49,0,0,0-.2.39H21a1,1,0,0,1,.22-.61,1.33,1.33,0,0,1,.59-.44,2,2,0,0,1,.83-.16,1.69,1.69,0,0,1,1.11.34,1.3,1.3,0,0,1,.42,1V69a2,2,0,0,0,.15.85v.06Zm-1-.64a1,1,0,0,0,.49-.13.82.82,0,0,0,.35-.34v-.75h-.48a1.33,1.33,0,0,0-.74.17.56.56,0,0,0-.25.49.53.53,0,0,0,.17.41A.65.65,0,0,0,22.45,69.29Z"/><path d="M28.17,66.67H26.89v3.26H26V66.67H24.73V66h3.44Z"/><path d="M28.49,67.91a2.25,2.25,0,0,1,.23-1,1.6,1.6,0,0,1,.65-.71,1.93,1.93,0,0,1,2.26.26,2.07,2.07,0,0,1,.54,1.37V68A2.38,2.38,0,0,1,32,69a1.72,1.72,0,0,1-.65.71,1.82,1.82,0,0,1-1,.25A1.72,1.72,0,0,1,29,69.45a2.18,2.18,0,0,1-.5-1.49Zm.89.08a1.59,1.59,0,0,0,.25,1,.81.81,0,0,0,.7.34.79.79,0,0,0,.7-.35,1.74,1.74,0,0,0,.26-1A1.6,1.6,0,0,0,31,67a.84.84,0,0,0-.7-.35.81.81,0,0,0-.7.35A1.72,1.72,0,0,0,29.38,68Z"/><path d="M33,69.93V66H34.6a2.23,2.23,0,0,1,1.24.28.93.93,0,0,1,.42.82.75.75,0,0,1-.17.49,1,1,0,0,1-.5.33,1.24,1.24,0,0,1,.62.33.82.82,0,0,1,.22.58.94.94,0,0,1-.41.84,2,2,0,0,1-1.17.29Zm.89-2.32h.74q.75,0,.75-.45c0-.31-.24-.47-.71-.49h-.78Zm0,.63v1h1c.45,0,.68-.17.68-.49s-.23-.5-.69-.5Z"/><path d="M37,67.91a2.38,2.38,0,0,1,.23-1,1.66,1.66,0,0,1,.65-.71,1.81,1.81,0,0,1,1-.25,1.72,1.72,0,0,1,1.3.51,2,2,0,0,1,.54,1.37V68A2.38,2.38,0,0,1,40.49,69a1.69,1.69,0,0,1-.64.71,1.85,1.85,0,0,1-1,.25,1.71,1.71,0,0,1-1.34-.55A2.14,2.14,0,0,1,37,68Zm.89.08a1.66,1.66,0,0,0,.25,1,.83.83,0,0,0,.71.34.8.8,0,0,0,.7-.35,1.74,1.74,0,0,0,.25-1,1.6,1.6,0,0,0-.26-1,.82.82,0,0,0-.7-.35.79.79,0,0,0-.69.35A1.72,1.72,0,0,0,37.92,68Z"/><path d="M43.21,70a1.82,1.82,0,0,1-1.37-.53,1.93,1.93,0,0,1-.52-1.42v-.11a2.29,2.29,0,0,1,.23-1.06,1.66,1.66,0,0,1,.64-.72,1.62,1.62,0,0,1,.92-.26,1.56,1.56,0,0,1,1.25.51,2.16,2.16,0,0,1,.44,1.46v.36H42.21a1.22,1.22,0,0,0,.33.78,1,1,0,0,0,.72.28,1.21,1.21,0,0,0,1-.49l.48.46a1.68,1.68,0,0,1-.63.55A2,2,0,0,1,43.21,70Zm-.1-3.39a.71.71,0,0,0-.59.26,1.29,1.29,0,0,0-.29.71h1.69v-.07a1.07,1.07,0,0,0-.23-.67A.77.77,0,0,0,43.11,66.61Z"/><path d="M16.3,76.93h-.89V73.69H13.87v3.24H13V73H16.3Z"/><path d="M17.08,74.91a2.38,2.38,0,0,1,.23-1,1.66,1.66,0,0,1,.65-.71,1.81,1.81,0,0,1,1-.25,1.72,1.72,0,0,1,1.3.51,2,2,0,0,1,.54,1.37V75A2.38,2.38,0,0,1,20.54,76a1.69,1.69,0,0,1-.64.71,1.85,1.85,0,0,1-1,.25,1.71,1.71,0,0,1-1.34-.55A2.14,2.14,0,0,1,17.08,75ZM18,75a1.59,1.59,0,0,0,.26,1,.88.88,0,0,0,1.4,0,1.74,1.74,0,0,0,.25-1,1.6,1.6,0,0,0-.26-1,.82.82,0,0,0-.7-.35.79.79,0,0,0-.69.35A1.72,1.72,0,0,0,18,75Z"/><path d="M22.93,75.36h-.45v1.57h-.89V73h.89v1.58h.39L24,73h1.1l-1.43,1.9,1.55,2.06H24Z"/><path d="M29.14,75a2.37,2.37,0,0,1-.42,1.47A1.33,1.33,0,0,1,27.6,77a1.36,1.36,0,0,1-1-.42v1.87h-.89V73h.82l0,.4a1.28,1.28,0,0,1,1.06-.47,1.34,1.34,0,0,1,1.14.54,2.44,2.44,0,0,1,.41,1.49Zm-.89-.08A1.64,1.64,0,0,0,28,74a.78.78,0,0,0-.68-.35.82.82,0,0,0-.78.45v1.76a.82.82,0,0,0,.79.46A.77.77,0,0,0,28,76,1.82,1.82,0,0,0,28.25,74.91Z"/><path d="M30.85,74.23h.87a1.87,1.87,0,0,1,.85.17,1.17,1.17,0,0,1,.55.47,1.28,1.28,0,0,1,.19.71,1.23,1.23,0,0,1-.43,1,1.74,1.74,0,0,1-1.15.37H30V73h.89Zm0,.71v1.28h.87a.73.73,0,0,0,.51-.16.58.58,0,0,0,.19-.47.63.63,0,0,0-.18-.47.68.68,0,0,0-.5-.18Zm4,2H34V73h.89Z"/><path d="M39,73.67H37.76v3.26h-.89V73.67H35.6V73H39Z"/><path d="M42.11,73H43v4h-.89V74.29l-1.55,2.64h-.89V73h.89v2.64Z"/><path d="M45.69,77a1.81,1.81,0,0,1-1.37-.53,1.93,1.93,0,0,1-.53-1.42v-.11A2.43,2.43,0,0,1,44,73.88a1.73,1.73,0,0,1,.64-.72,1.67,1.67,0,0,1,.92-.26,1.56,1.56,0,0,1,1.25.51,2.16,2.16,0,0,1,.45,1.46v.36H44.69A1.12,1.12,0,0,0,45,76a1,1,0,0,0,.72.28,1.18,1.18,0,0,0,1-.49l.48.46a1.61,1.61,0,0,1-.63.55A2,2,0,0,1,45.69,77Zm-.11-3.39a.73.73,0,0,0-.59.26,1.29,1.29,0,0,0-.29.71h1.7v-.07a1.07,1.07,0,0,0-.24-.67A.75.75,0,0,0,45.58,73.61Z"/><path class="cls-1" d="M29.34,22.88l.15.14-.25-.3A1.4,1.4,0,0,0,29.34,22.88Z"/><path class="cls-1" d="M19,29.87a3.39,3.39,0,0,1-.45,0,4.62,4.62,0,0,1-4.15-4.33c0-.13,0-.26,0-.4a4.38,4.38,0,0,1,1.28-3.19,4.73,4.73,0,0,1-.43-2.41c0-.13,0-.24,0-.36l.05-.29a4.81,4.81,0,0,1,4.47-3.74h.45l.39,0a4.66,4.66,0,0,1,2.13.84,4.41,4.41,0,0,1,3.29-.7,3.26,3.26,0,0,1,.47.09,4.59,4.59,0,0,1,1.29.52,4.82,4.82,0,0,1,1.27,1l.2.22.12.14a4.47,4.47,0,0,1,2.05-.67A4.06,4.06,0,0,1,35,18.16a4.22,4.22,0,0,1,.58,4.53l.88,1.06a5.54,5.54,0,0,0-6.23-8.21l-.33.09-.24-.25a6.18,6.18,0,0,0-6.34-1.54l-.22.07-.22-.1a6.75,6.75,0,0,0-9.4,7.85l.06.23-.11.2A6.11,6.11,0,0,0,14.1,29a6.19,6.19,0,0,0,7.08,1.81l-.93-1.11A4.54,4.54,0,0,1,19,29.87Z"/><path class="cls-1" d="M16.88,24.51a2.43,2.43,0,0,1,.88-1.68A2.54,2.54,0,0,1,19,22.27l-.16-.18A2.49,2.49,0,0,1,21,18a2.53,2.53,0,0,1,1.68.88l.31.38a2.44,2.44,0,0,1,.77-1.13,2.47,2.47,0,0,1,1.81-.57,2.5,2.5,0,0,1,1.68.89L29,20.66a2.54,2.54,0,0,1,.75-1,2.4,2.4,0,0,1,3.5.29l1.43,1.71a3.86,3.86,0,0,0,.09-.49,3.09,3.09,0,0,0-.71-2.26,2.9,2.9,0,0,0-2.5-1.12,3.26,3.26,0,0,0-1.61.53,2.88,2.88,0,0,0-.28.21l-.5.48-.4-.56a4.48,4.48,0,0,0-.41-.51l-.21-.26a3.92,3.92,0,0,0-1-.75,3.16,3.16,0,0,0-1.3-.46,3.32,3.32,0,0,0-2.73.68l-.38.32-.43-.28a3.53,3.53,0,0,0-1.9-.86,1.27,1.27,0,0,0-.28,0h-.28a3.62,3.62,0,0,0-3.44,2.81l0,.18c0,.15,0,.24,0,.33a3.58,3.58,0,0,0,.5,2.14l.25.43-.38.32a3.26,3.26,0,0,0-1.21,2.62v.33a3.46,3.46,0,0,0,3.09,3.23,4,4,0,0,0,.77,0l-2-2.35A2.44,2.44,0,0,1,16.88,24.51Z"/><path d="M14.1,29a6.11,6.11,0,0,1-.67-6.89l.11-.2-.06-.23a6.76,6.76,0,0,1,9.4-7.85l.22.1.22-.07a6.18,6.18,0,0,1,6.34,1.54l.24.25.33-.09a5.54,5.54,0,0,1,6.23,8.21l.78.93a6.7,6.7,0,0,0-7-10.35,7.37,7.37,0,0,0-7.08-1.67,7.91,7.91,0,0,0-10.88,9.08,7.26,7.26,0,0,0,.91,8,7.43,7.43,0,0,0,5.72,2.7,7.19,7.19,0,0,0,3-.7l-.78-.94A6.19,6.19,0,0,1,14.1,29Z"/><path d="M18.64,28.69a3.46,3.46,0,0,1-3.09-3.23v-.33a3.26,3.26,0,0,1,1.21-2.62l.38-.32-.25-.43a3.58,3.58,0,0,1-.5-2.14c0-.09,0-.18,0-.33l0-.18a3.62,3.62,0,0,1,3.44-2.81h.28a1.27,1.27,0,0,1,.28,0,3.53,3.53,0,0,1,1.9.86l.43.28.38-.32a3.32,3.32,0,0,1,2.73-.68,3.16,3.16,0,0,1,1.3.46,3.92,3.92,0,0,1,1,.75l.21.26a4.48,4.48,0,0,1,.41.51l.4.56.5-.48a2.88,2.88,0,0,1,.28-.21,3.26,3.26,0,0,1,1.61-.53,2.9,2.9,0,0,1,2.5,1.12,3.09,3.09,0,0,1,.71,2.26,3.86,3.86,0,0,1-.09.49l.86,1A4.22,4.22,0,0,0,35,18.16a4.06,4.06,0,0,0-3.55-1.53,4.47,4.47,0,0,0-2.05.67l-.12-.14-.2-.22a4.82,4.82,0,0,0-1.27-1,4.59,4.59,0,0,0-1.29-.52,3.26,3.26,0,0,0-.47-.09,4.41,4.41,0,0,0-3.29.7,4.66,4.66,0,0,0-2.13-.84l-.39,0h-.45a4.81,4.81,0,0,0-4.47,3.74l-.05.29c0,.12,0,.23,0,.36a4.73,4.73,0,0,0,.43,2.41,4.38,4.38,0,0,0-1.28,3.19c0,.14,0,.27,0,.4a4.62,4.62,0,0,0,4.15,4.33,3.39,3.39,0,0,0,.45,0,4.54,4.54,0,0,0,1.27-.19l-.84-1A4,4,0,0,1,18.64,28.69Z"/><path d="M27.54,26.6l3,3.57.89-.75-1.79-2.15a6.86,6.86,0,0,1-1.66-.8Z"/><path d="M47.85,39.39a13.53,13.53,0,0,1-1.35-1.51,22.74,22.74,0,0,1-2.65-4.67,10.06,10.06,0,0,0-1.44-2.33l-5.17-6.2a6.63,6.63,0,0,1-.76.92l5,6a8.85,8.85,0,0,1,1.28,2.06,23.15,23.15,0,0,0,2.78,4.9,14.22,14.22,0,0,0,1.49,1.66.94.94,0,0,1,.19,1.08,11.16,11.16,0,0,1-3.48,4.36c-2.38,2-4.11,2.38-4.94,2.45a1,1,0,0,1-.88-.37,8.2,8.2,0,0,0-1.46-1.27l-.56-.39a7.52,7.52,0,0,0-3.27-1.33,12.06,12.06,0,0,1-3.08-1.7,12.2,12.2,0,0,0-2.67-1.5l-6.42-1.1a1.6,1.6,0,0,1-1.06-.63,1.3,1.3,0,0,1-.11-1.05c.19-.75.67-1,1.63-1h0l8,.53-6-7.15a7.56,7.56,0,0,1-1,.6l4.34,5.21L21,36.58h0a2.52,2.52,0,0,0-2.79,1.94,2.44,2.44,0,0,0,.26,2,2.74,2.74,0,0,0,1.84,1.14l6.33,1.08a12.74,12.74,0,0,1,2.31,1.34,12.49,12.49,0,0,0,3.45,1.86,6.48,6.48,0,0,1,2.89,1.17l.58.39a8.1,8.1,0,0,1,1.24,1.09,2.11,2.11,0,0,0,1.64.75h.19c1.18-.09,3.1-.63,5.6-2.71a12.37,12.37,0,0,0,3.82-4.83A2.13,2.13,0,0,0,47.85,39.39Z"/><path d="M27,24.15a3.1,3.1,0,0,1-.58.15,5.53,5.53,0,0,1-.7.07l1.05,1.26a5.76,5.76,0,0,0,1.06-.36l.12-.05L27,24.13Z"/><path d="M34.91,23.71l.82,1a5.46,5.46,0,0,0,.73-.95l-.88-1.06A4.28,4.28,0,0,1,34.91,23.71Z"/><path d="M31.25,25.13l1.06,1.28a5.73,5.73,0,0,0,1.29-.29L32.7,25A3.92,3.92,0,0,1,31.25,25.13Z"/><path d="M27.61,32.59l.9-.75-3.07-3.68a8.37,8.37,0,0,1-.61,1.1Z"/><path d="M20.25,29.68l.93,1.11a6.64,6.64,0,0,0,1.05-.56l-.88-1.05A4.38,4.38,0,0,1,20.25,29.68Z"/><path d="M33.43,27.74l.66-.55a7.69,7.69,0,0,1-.9.27Z"/><path d="M19.91,19.5a1.31,1.31,0,0,1,1.84.16l2.84,3.4a2.84,2.84,0,0,0,1,.14,3.07,3.07,0,0,0,.53-.05h0L24.31,20.9a1.3,1.3,0,0,1,.17-1.84,1.27,1.27,0,0,1,.95-.3,1.32,1.32,0,0,1,.89.46l2.08,2.5.18-.19.37.75a2.57,2.57,0,0,0,.29.44l.25.3a2.83,2.83,0,0,0,1,.69A3,3,0,0,0,31.8,24l-1.36-1.64a1.36,1.36,0,0,1-.38-.92,1.16,1.16,0,0,1,.48-.85,1.22,1.22,0,0,1,1.85.14l1.76,2.11a3.1,3.1,0,0,0,.57-1.15L33.29,20a2.4,2.4,0,0,0-3.5-.29,2.54,2.54,0,0,0-.75,1l-1.82-2.18a2.5,2.5,0,0,0-1.68-.89,2.47,2.47,0,0,0-1.81.57A2.44,2.44,0,0,0,23,19.29l-.31-.38A2.53,2.53,0,0,0,21,18a2.49,2.49,0,0,0-2.13,4.06l.16.18a2.54,2.54,0,0,0-1.24.56,2.47,2.47,0,0,0-.31,3.49l2,2.35a3.35,3.35,0,0,0,1.19-.4l-2.26-2.7a1.32,1.32,0,0,1-.3-.95,1.35,1.35,0,0,1,.47-.9,1.31,1.31,0,0,1,1.8.12l1.89,2.28a.25.25,0,0,0,0-.07A3.33,3.33,0,0,0,22,24.1l-2.3-2.76A1.31,1.31,0,0,1,19.91,19.5Z"/><path d="M23.44,25.77c0,.17,0,.34-.07.51a4.4,4.4,0,0,1-.29.89l1,1.15a7,7,0,0,0,.53-1.18Z"/><path d="M22.23,30.23a6.64,6.64,0,0,1-1.05.56l.78.94a7.56,7.56,0,0,0,1-.6Z"/><path d="M33.19,27.46a7.69,7.69,0,0,0,.9-.27l.24-.2-.73-.87a5.73,5.73,0,0,1-1.29.29Z"/><path d="M27.79,25.27a5.76,5.76,0,0,1-1.06.36l.81,1,.42-.13a6.86,6.86,0,0,0,1.66.8l-1.71-2.05Z"/><path d="M24.05,28.32l.78.94a8.37,8.37,0,0,0,.61-1.1l-.86-1A7,7,0,0,1,24.05,28.32Z"/><path d="M35.73,24.7l.75.9a6.63,6.63,0,0,0,.76-.92l-.78-.93A5.46,5.46,0,0,1,35.73,24.7Z"/><path d="M25.63,23.2a2.84,2.84,0,0,1-1-.14l1.09,1.31a5.53,5.53,0,0,0,.7-.07,3.1,3.1,0,0,0,.58-.15l.05,0-.83-1h0A3.07,3.07,0,0,1,25.63,23.2Z"/><path d="M28.58,21.53l-.18.19.84,1a2.57,2.57,0,0,1-.29-.44Z"/><path d="M30.44,23.71a2.83,2.83,0,0,1-1-.69l1.76,2.11A3.92,3.92,0,0,0,32.7,25L31.8,24A3,3,0,0,1,30.44,23.71Z"/><path d="M19.41,28.67l.84,1a4.38,4.38,0,0,0,1.1-.5l-.75-.91A3.35,3.35,0,0,1,19.41,28.67Z"/><path d="M23.44,25.77,22,24.1a3.33,3.33,0,0,1,.18,1.95.25.25,0,0,1,0,.07l.88,1.05a4.4,4.4,0,0,0,.29-.89C23.4,26.11,23.42,25.94,23.44,25.77Z"/><path d="M34.15,22.81l.76.9a4.28,4.28,0,0,0,.67-1l-.86-1A3.1,3.1,0,0,1,34.15,22.81Z"/></svg>