<svg id="Слой_1" data-name="Слой 1" xmlns="http://www.w3.org/2000/svg" viewBox="0 0 60 80"><defs><style>.cls-1{fill:#ed700e;}.cls-1,.cls-2{stroke:#ed700e;stroke-miterlimit:10;stroke-width:0.75px;}.cls-2,.cls-3{fill:none;}.cls-4{fill:#1d1d1b;}</style></defs><title>Иконки утп</title><polygon class="cls-1" points="16.08 55.72 16.99 57.57 19.03 57.87 17.56 59.3 17.91 61.34 16.08 60.38 14.25 61.34 14.6 59.3 13.13 57.87 15.17 57.57 16.08 55.72"/><polygon class="cls-1" points="25.36 55.72 26.27 57.57 28.31 57.87 26.84 59.3 27.19 61.34 25.36 60.38 23.53 61.34 23.88 59.3 22.41 57.87 24.45 57.57 25.36 55.72"/><polygon class="cls-1" points="34.64 55.72 35.55 57.57 37.59 57.87 36.12 59.3 36.47 61.34 34.64 60.38 32.81 61.34 33.16 59.3 31.69 57.87 33.73 57.57 34.64 55.72"/><polygon class="cls-2" points="43.92 55.72 44.83 57.57 46.87 57.87 45.4 59.3 45.75 61.34 43.92 60.38 42.09 61.34 42.44 59.3 40.97 57.87 43.01 57.57 43.92 55.72"/><path d="M3.67,73V67.61H5.5A2.2,2.2,0,0,1,6.88,68a1.28,1.28,0,0,1,.47,1.08,1.19,1.19,0,0,1-.2.66,1.28,1.28,0,0,1-.58.45,1.17,1.17,0,0,1,.67.44,1.29,1.29,0,0,1,.24.78A1.42,1.42,0,0,1,7,72.54,2.12,2.12,0,0,1,5.62,73Zm.93-3.09h.91a1,1,0,0,0,.67-.2.67.67,0,0,0,.25-.55.66.66,0,0,0-.23-.57,1.11,1.11,0,0,0-.7-.18H4.6Zm0,.68v1.67h1A1,1,0,0,0,6.31,72a.86.86,0,0,0-.61-1.45Z"/><path d="M8.15,70.93a2.38,2.38,0,0,1,.23-1.05A1.75,1.75,0,0,1,9,69.16a1.81,1.81,0,0,1,1-.25,1.71,1.71,0,0,1,1.3.52,2.05,2.05,0,0,1,.54,1.37V71a2.35,2.35,0,0,1-.22,1,1.68,1.68,0,0,1-.65.72A1.88,1.88,0,0,1,10,73a1.75,1.75,0,0,1-1.35-.56A2.16,2.16,0,0,1,8.15,71ZM9,71a1.66,1.66,0,0,0,.25,1,.84.84,0,0,0,.71.35.82.82,0,0,0,.7-.35,1.84,1.84,0,0,0,.25-1,1.58,1.58,0,0,0-.26-1A.86.86,0,0,0,9.3,70,1.74,1.74,0,0,0,9,71Z"/><path d="M12.34,72.23a2.32,2.32,0,0,0,.5-.78,3.86,3.86,0,0,0,.15-1L13,69h2.75v3.25h.55v1.89h-.89V73H12.91v1.17H12V72.23Zm1,0H14.9V69.75h-1l0,.76A3.25,3.25,0,0,1,13.38,72.23Z"/><path d="M16.81,70.93A2.25,2.25,0,0,1,17,69.88a1.68,1.68,0,0,1,.65-.72,1.76,1.76,0,0,1,1-.25,1.73,1.73,0,0,1,1.3.52,2.05,2.05,0,0,1,.54,1.37V71a2.35,2.35,0,0,1-.22,1,1.68,1.68,0,0,1-.65.72,1.92,1.92,0,0,1-1,.25,1.73,1.73,0,0,1-1.34-.56,2.16,2.16,0,0,1-.5-1.49Zm.89.07A1.59,1.59,0,0,0,18,72a.82.82,0,0,0,.7.35.81.81,0,0,0,.7-.35,1.76,1.76,0,0,0,.26-1,1.58,1.58,0,0,0-.26-1,.82.82,0,0,0-.7-.36A.85.85,0,0,0,18,70,1.74,1.74,0,0,0,17.7,71Z"/><path d="M22.87,72.31a.83.83,0,0,0,.56-.2.69.69,0,0,0,.23-.48h.84a1.32,1.32,0,0,1-.23.69,1.46,1.46,0,0,1-.59.51,1.66,1.66,0,0,1-.8.19,1.7,1.7,0,0,1-1.32-.54A2.15,2.15,0,0,1,21.08,71V70.9a2.13,2.13,0,0,1,.48-1.45,1.68,1.68,0,0,1,1.32-.54,1.65,1.65,0,0,1,1.15.41,1.5,1.5,0,0,1,.47,1.08h-.84a.86.86,0,0,0-.23-.56.79.79,0,0,0-.56-.22.76.76,0,0,0-.66.32,1.54,1.54,0,0,0-.24,1V71a1.66,1.66,0,0,0,.23,1A.79.79,0,0,0,22.87,72.31Z"/><path d="M28.29,69.69H27V73h-.89V69.69H24.84V69h3.45Z"/><path d="M28.6,70.93a2.38,2.38,0,0,1,.23-1.05,1.75,1.75,0,0,1,.65-.72,1.81,1.81,0,0,1,1-.25,1.7,1.7,0,0,1,1.3.52,2,2,0,0,1,.54,1.37V71a2.35,2.35,0,0,1-.23,1,1.66,1.66,0,0,1-.64.72,1.94,1.94,0,0,1-1,.25,1.71,1.71,0,0,1-1.34-.56A2.12,2.12,0,0,1,28.6,71Zm.89.07a1.59,1.59,0,0,0,.26,1,.81.81,0,0,0,.7.35.82.82,0,0,0,.7-.35,1.76,1.76,0,0,0,.25-1,1.58,1.58,0,0,0-.26-1,.81.81,0,0,0-.7-.36.82.82,0,0,0-.69.35A1.74,1.74,0,0,0,29.49,71Z"/><path d="M35.51,69h.89v4h-.89V70.3L34,73h-.89V69H34v2.65Zm.42-1.52a1,1,0,0,1-.32.75,1.26,1.26,0,0,1-.86.29,1.24,1.24,0,0,1-.86-.29.93.93,0,0,1-.32-.75h.66a.52.52,0,1,0,1,0Z"/><path d="M38.75,71.38H38.3V73h-.89V69h.89v1.58h.4L39.79,69h1.1l-1.43,1.9L41,73H39.85Z"/><path d="M41.12,70.93a2.38,2.38,0,0,1,.23-1.05,1.75,1.75,0,0,1,.65-.72,1.81,1.81,0,0,1,1-.25,1.7,1.7,0,0,1,1.3.52,2,2,0,0,1,.54,1.37V71a2.35,2.35,0,0,1-.23,1,1.66,1.66,0,0,1-.64.72A1.92,1.92,0,0,1,43,73a1.71,1.71,0,0,1-1.34-.56A2.12,2.12,0,0,1,41.12,71ZM42,71a1.59,1.59,0,0,0,.26,1,.88.88,0,0,0,1.4,0,1.76,1.76,0,0,0,.25-1,1.51,1.51,0,0,0-.26-1,.81.81,0,0,0-.7-.36.82.82,0,0,0-.69.35A1.74,1.74,0,0,0,42,71Z"/><path d="M47.19,72.31a.81.81,0,0,0,.55-.2.66.66,0,0,0,.24-.48h.83a1.24,1.24,0,0,1-.23.69,1.44,1.44,0,0,1-.58.51,1.85,1.85,0,0,1-2.12-.35A2.16,2.16,0,0,1,45.39,71V70.9a2.09,2.09,0,0,1,.49-1.45,1.68,1.68,0,0,1,1.32-.54,1.65,1.65,0,0,1,1.15.41,1.49,1.49,0,0,1,.46,1.08H48a.82.82,0,0,0-.24-.56.76.76,0,0,0-.55-.22.79.79,0,0,0-.67.32,1.69,1.69,0,0,0-.24,1V71a1.58,1.58,0,0,0,.24,1A.78.78,0,0,0,47.19,72.31Z"/><path d="M52.6,69.69H51.32V73h-.89V69.69H49.16V69H52.6Z"/><path d="M54.15,70.24H55a2.08,2.08,0,0,1,.85.17,1.27,1.27,0,0,1,.55.47,1.39,1.39,0,0,1,.18.71,1.21,1.21,0,0,1-.43,1A1.75,1.75,0,0,1,55,73H53.26V69h.89Zm0,.72v1.27H55a.77.77,0,0,0,.52-.16.59.59,0,0,0,.18-.46.65.65,0,0,0-.18-.48A.72.72,0,0,0,55,71Z"/><path class="cls-3" d="M35.75,29.16a9.09,9.09,0,0,1-12.15-.57h0a8.79,8.79,0,0,1-2.24-3.7l-5.87,3.66,14.51,9,14.52-9-5.88-3.67A8.9,8.9,0,0,1,35.75,29.16Z"/><path class="cls-4" d="M29.55,39.32a.84.84,0,0,0,.45.13.79.79,0,0,0,.45-.13l16.14-10a.85.85,0,0,0,0-1.45L39,23.09a9,9,0,0,1-.36,1.79l5.88,3.67L30,37.59l-14.51-9,5.87-3.66a8.57,8.57,0,0,1-.36-1.8l-7.59,4.73a.85.85,0,0,0,0,1.45Z"/><path class="cls-4" d="M46.14,33.43a.82.82,0,0,0-.6.25.86.86,0,0,0-.25.61.85.85,0,0,0,.85.85.86.86,0,0,0,.61-.25.82.82,0,0,0,.25-.6.85.85,0,0,0-.86-.86Z"/><path class="cls-4" d="M43,35.24a.85.85,0,0,0-.27,1.18.87.87,0,0,0,.73.4.81.81,0,0,0,.45-.13A.86.86,0,0,0,43,35.24Z"/><path class="cls-4" d="M34.93,40.26a.86.86,0,0,0,.46,1.58.81.81,0,0,0,.45-.13.85.85,0,0,0,.27-1.17A.86.86,0,0,0,34.93,40.26Z"/><path class="cls-4" d="M32.24,41.94a.86.86,0,0,0,.46,1.58.84.84,0,0,0,.45-.13.86.86,0,1,0-.91-1.45Z"/><path class="cls-4" d="M37.62,38.59a.85.85,0,0,0,.45,1.58.79.79,0,0,0,.45-.13.85.85,0,0,0-.9-1.45Z"/><path class="cls-4" d="M40.31,36.92A.85.85,0,0,0,40,38.09a.86.86,0,0,0,.73.41.84.84,0,0,0,.45-.13.86.86,0,0,0-.91-1.45Z"/><path class="cls-4" d="M29.4,43.73a.86.86,0,0,0-.25.61.85.85,0,0,0,.85.85.86.86,0,0,0,.61-.25.84.84,0,0,0,.25-.6.86.86,0,0,0-1.46-.61Z"/><path class="cls-4" d="M26.58,42.21a.86.86,0,0,0,.27,1.18,1,1,0,0,0,.45.12.85.85,0,0,0,.45-1.58A.86.86,0,0,0,26.58,42.21Z"/><path class="cls-4" d="M15.83,35.51a.86.86,0,0,0,.27,1.18.93.93,0,0,0,.45.13.87.87,0,0,0,.73-.41.85.85,0,1,0-1.45-.9Z"/><path class="cls-4" d="M23.9,40.54a.85.85,0,0,0,.27,1.17.84.84,0,0,0,.45.13.87.87,0,0,0,.73-.4.85.85,0,1,0-1.45-.9Z"/><path class="cls-4" d="M21.21,38.86A.86.86,0,0,0,21.48,40a.92.92,0,0,0,.45.12.87.87,0,0,0,.73-.4.85.85,0,1,0-1.45-.9Z"/><path class="cls-4" d="M18.51,37.19a.86.86,0,0,0,.27,1.18,1,1,0,0,0,.45.12.86.86,0,0,0,.46-1.58A.87.87,0,0,0,18.51,37.19Z"/><path class="cls-4" d="M13.86,35.14a.86.86,0,0,0,.61-.25.82.82,0,0,0,.25-.6.85.85,0,0,0-.86-.86.84.84,0,0,0-.6.25.86.86,0,0,0-.25.61.85.85,0,0,0,.85.85Z"/><path class="cls-4" d="M45.69,39.3,30,49.07,14.31,39.3a.85.85,0,0,0-1.17.27.86.86,0,0,0,.27,1.18l16.14,10a.87.87,0,0,0,.45.13.93.93,0,0,0,.45-.13l16.14-10a.86.86,0,0,0,.27-1.18A.84.84,0,0,0,45.69,39.3Z"/><path d="M35,27.86a7.6,7.6,0,0,1-10,0,7.3,7.3,0,0,1-2.3-3.81l-1.35.84a8.79,8.79,0,0,0,2.24,3.7h0a9.09,9.09,0,0,0,12.15.57,8.9,8.9,0,0,0,2.89-4.28L37.28,24A7.32,7.32,0,0,1,35,27.86Z"/><path d="M23.76,18.1l6.23-9,6.23,9.05a7.32,7.32,0,0,1,1.28,4.06l1.5.93a8.87,8.87,0,0,0-1.53-5.83l-6.85-10a.79.79,0,0,0-1.25,0l-6.86,10A8.8,8.8,0,0,0,21,23.09l1.48-.92A7.36,7.36,0,0,1,23.76,18.1Z"/><path d="M22.71,24.05a7.07,7.07,0,0,1-.23-1.88L21,23.09a8.57,8.57,0,0,0,.36,1.8Z"/><path d="M37.28,24l1.36.84A9,9,0,0,0,39,23.09l-1.5-.93A7.49,7.49,0,0,1,37.28,24Z"/><path class="cls-4" d="M30.87,27.42a.58.58,0,0,1-.56-.46.56.56,0,0,1,.45-.66A3.91,3.91,0,0,0,32.92,25a3.82,3.82,0,0,0,.89-2.35.57.57,0,0,1,1.14,0,5,5,0,0,1-1.16,3.05A4.91,4.91,0,0,1,31,27.41Z"/></svg>