<svg id="Слой_1" data-name="Слой 1" xmlns="http://www.w3.org/2000/svg" viewBox="0 0 40 58"><defs><style>.cls-1{fill:#ed700e;}.cls-1,.cls-2{stroke:#ed700e;stroke-miterlimit:10;stroke-width:0.75px;}.cls-2,.cls-3{fill:none;}.cls-4{fill:#1d1d1b;}</style></defs><title>Иконки утп мобильные</title><polygon class="cls-1" points="6.35 50.79 7.26 52.63 9.3 52.93 7.83 54.37 8.18 56.41 6.35 55.45 4.53 56.41 4.88 54.37 3.4 52.93 5.44 52.63 6.35 50.79"/><polygon class="cls-2" points="15.63 50.79 16.54 52.63 18.59 52.93 17.11 54.37 17.46 56.41 15.63 55.45 13.81 56.41 14.15 54.37 12.68 52.93 14.72 52.63 15.63 50.79"/><polygon class="cls-2" points="24.91 50.79 25.82 52.63 27.86 52.93 26.39 54.37 26.74 56.41 24.91 55.45 23.09 56.41 23.43 54.37 21.96 52.93 24 52.63 24.91 50.79"/><polygon class="cls-2" points="34.19 50.79 35.1 52.63 37.15 52.93 35.67 54.37 36.02 56.41 34.19 55.45 32.37 56.41 32.72 54.37 31.24 52.93 33.28 52.63 34.19 50.79"/><path class="cls-3" d="M26,24.22a9.09,9.09,0,0,1-12.15-.56h0A8.87,8.87,0,0,1,11.63,20L5.76,23.61l14.52,9,14.51-9L28.91,20A8.88,8.88,0,0,1,26,24.22Z"/><path class="cls-4" d="M19.83,34.39a.87.87,0,0,0,.45.13.93.93,0,0,0,.45-.13l16.13-10a.87.87,0,0,0,.41-.73.86.86,0,0,0-.41-.73l-7.59-4.73a9.26,9.26,0,0,1-.36,1.8l5.88,3.66-14.51,9-14.52-9L11.63,20a8.36,8.36,0,0,1-.36-1.79L3.68,22.88a.87.87,0,0,0-.41.73.88.88,0,0,0,.42.73Z"/><path class="cls-4" d="M36.41,28.5a.85.85,0,0,0-.85.85.86.86,0,0,0,.25.61.84.84,0,0,0,.6.25.85.85,0,0,0,.86-.86.84.84,0,0,0-.25-.6A.86.86,0,0,0,36.41,28.5Z"/><path class="cls-4" d="M33.27,30.3A.85.85,0,0,0,33,31.48a.87.87,0,0,0,.73.41.81.81,0,0,0,.45-.13.86.86,0,0,0-.91-1.46Z"/><path class="cls-4" d="M25.2,35.32a.86.86,0,0,0,.46,1.59.81.81,0,0,0,.45-.13.86.86,0,0,0-.91-1.46Z"/><path class="cls-4" d="M22.51,37A.86.86,0,0,0,23,38.59a.93.93,0,0,0,.45-.13A.86.86,0,0,0,22.51,37Z"/><path class="cls-4" d="M27.89,33.65a.87.87,0,0,0-.27,1.18.83.83,0,0,0,.72.41.79.79,0,0,0,.45-.13.86.86,0,0,0,.28-1.18A.85.85,0,0,0,27.89,33.65Z"/><path class="cls-4" d="M30.58,32A.86.86,0,0,0,31,33.57a.93.93,0,0,0,.45-.13A.86.86,0,0,0,30.58,32Z"/><path class="cls-4" d="M19.67,38.79a.86.86,0,0,0,.61,1.47.84.84,0,0,0,.6-.25.87.87,0,0,0,0-1.22.88.88,0,0,0-.6-.25A.91.91,0,0,0,19.67,38.79Z"/><path class="cls-4" d="M16.85,37.27a.86.86,0,0,0,.28,1.18.84.84,0,0,0,1.17-.28A.85.85,0,0,0,18,37,.86.86,0,0,0,16.85,37.27Z"/><path class="cls-4" d="M6.1,30.58a.85.85,0,0,0,.27,1.17.84.84,0,0,0,.45.13.86.86,0,0,0,.46-1.58A.86.86,0,0,0,6.1,30.58Z"/><path class="cls-4" d="M14.17,35.6a.86.86,0,0,0,.27,1.18.84.84,0,0,0,.45.13.86.86,0,0,0,.46-1.59A.86.86,0,0,0,14.17,35.6Z"/><path class="cls-4" d="M11.48,33.92a.86.86,0,0,0,.27,1.18.84.84,0,0,0,.45.13.86.86,0,0,0,.73-.41.85.85,0,0,0-1.45-.9Z"/><path class="cls-4" d="M8.78,32.25a.86.86,0,0,0,.28,1.18.84.84,0,0,0,1.17-.28A.86.86,0,0,0,10,32,.87.87,0,0,0,8.78,32.25Z"/><path class="cls-4" d="M4.14,30.21a.84.84,0,0,0,.6-.25A.86.86,0,0,0,5,29.35a.85.85,0,0,0-.85-.85.86.86,0,0,0-.61.25.84.84,0,0,0-.25.6.86.86,0,0,0,.25.61A.82.82,0,0,0,4.14,30.21Z"/><path class="cls-4" d="M36,34.37,20.28,44.14,4.59,34.37a.86.86,0,0,0-.91,1.45l16.14,10a.79.79,0,0,0,.45.13.81.81,0,0,0,.45-.13l16.14-10a.86.86,0,0,0,.27-1.18A.84.84,0,0,0,36,34.37Z"/><path d="M25.25,22.93a7.64,7.64,0,0,1-10,0A7.34,7.34,0,0,1,13,19.12L11.63,20a8.87,8.87,0,0,0,2.24,3.71h0A9.09,9.09,0,0,0,26,24.22,8.88,8.88,0,0,0,28.91,20l-1.36-.85A7.36,7.36,0,0,1,25.25,22.93Z"/><path d="M14,13.17l6.23-9,6.23,9.05a7.29,7.29,0,0,1,1.28,4l1.5.93a8.85,8.85,0,0,0-1.53-5.82l-6.85-10a.79.79,0,0,0-1.25,0l-6.85,10a8.81,8.81,0,0,0-1.52,5.83l1.48-.93A7.32,7.32,0,0,1,14,13.17Z"/><path d="M13,19.12a7.09,7.09,0,0,1-.23-1.89l-1.48.93A8.36,8.36,0,0,0,11.63,20Z"/><path d="M27.55,19.1l1.36.85a9.26,9.26,0,0,0,.36-1.8l-1.5-.93A7.38,7.38,0,0,1,27.55,19.1Z"/><path class="cls-4" d="M21.14,22.49A.57.57,0,0,1,21,21.36a3.78,3.78,0,0,0,3-3.61.57.57,0,0,1,.58-.55.56.56,0,0,1,.56.58,4.91,4.91,0,0,1-4,4.69Z"/></svg>