<svg id="Слой_1" data-name="Слой 1" xmlns="http://www.w3.org/2000/svg" viewBox="0 0 60 80"><defs><style>.cls-1{fill:#1d1d1b;}</style></defs><title>Иконки утп</title><path d="M20.29,60.2a2,2,0,0,1-.62,1.33A2.22,2.22,0,0,1,18.2,62a2.11,2.11,0,0,1-1.12-.3,2,2,0,0,1-.75-.86,3.22,3.22,0,0,1-.27-1.29v-.5a3.13,3.13,0,0,1,.27-1.33,1.93,1.93,0,0,1,.76-.88,2.14,2.14,0,0,1,1.16-.31,2,2,0,0,1,1.42.47,2,2,0,0,1,.62,1.36h-.92a1.28,1.28,0,0,0-.33-.83,1.12,1.12,0,0,0-.79-.26,1.09,1.09,0,0,0-.93.44A2.17,2.17,0,0,0,17,59v.47a2.3,2.3,0,0,0,.31,1.32,1,1,0,0,0,.9.46A1.15,1.15,0,0,0,19,61a1.23,1.23,0,0,0,.35-.81Z"/><path d="M22.9,58.19a1.51,1.51,0,0,1,1.2.5A1.93,1.93,0,0,1,24.55,60v.05a2,2,0,0,1-.49,1.39,1.72,1.72,0,0,1-1.33.53,1.7,1.7,0,0,1-1.31-.54A2.1,2.1,0,0,1,20.91,60v-.26a3.94,3.94,0,0,1,.46-2,1.94,1.94,0,0,1,1.35-.93,1.8,1.8,0,0,0,.66-.22.37.37,0,0,0,.15-.31h.71a1.34,1.34,0,0,1-.12.6.88.88,0,0,1-.37.37,2.81,2.81,0,0,1-.85.27,1.59,1.59,0,0,0-.85.42,1.5,1.5,0,0,0-.39.83A1.68,1.68,0,0,1,22.9,58.19Zm-.17.71a.85.85,0,0,0-.68.29,1.42,1.42,0,0,0-.25.9,1.39,1.39,0,0,0,.25.89.89.89,0,0,0,1.37,0,1.63,1.63,0,0,0,.25-1,1.26,1.26,0,0,0-.25-.81A.83.83,0,0,0,22.73,58.9Z"/><path d="M25.08,59.91a2.38,2.38,0,0,1,.23-1,1.6,1.6,0,0,1,.65-.71,1.82,1.82,0,0,1,1-.26,1.75,1.75,0,0,1,1.3.52,2.07,2.07,0,0,1,.54,1.37V60a2.38,2.38,0,0,1-.22,1,1.72,1.72,0,0,1-.65.71,1.82,1.82,0,0,1-1,.25,1.74,1.74,0,0,1-1.34-.55,2.18,2.18,0,0,1-.5-1.49ZM26,60a1.59,1.59,0,0,0,.25,1,.89.89,0,0,0,1.41,0,1.8,1.8,0,0,0,.25-1,1.6,1.6,0,0,0-.26-.95.84.84,0,0,0-.7-.35.82.82,0,0,0-.7.35A1.72,1.72,0,0,0,26,60Z"/><path d="M33,60a2.37,2.37,0,0,1-.42,1.47,1.34,1.34,0,0,1-1.12.54,1.38,1.38,0,0,1-1.05-.42v1.87h-.89V58h.82l0,.4a1.31,1.31,0,0,1,1.07-.48,1.34,1.34,0,0,1,1.13.55A2.34,2.34,0,0,1,33,59.93Zm-.89-.08a1.64,1.64,0,0,0-.24-.94.76.76,0,0,0-.67-.35.82.82,0,0,0-.79.45v1.76a.82.82,0,0,0,.79.46.76.76,0,0,0,.67-.34A1.82,1.82,0,0,0,32.1,59.91Z"/><path d="M37.09,61.93H36.2v-1.6H34.66v1.6h-.89V58h.89v1.65H36.2V58h.89Z"/><path d="M37.87,59.91a2.38,2.38,0,0,1,.23-1,1.66,1.66,0,0,1,.65-.71,1.82,1.82,0,0,1,1-.26,1.73,1.73,0,0,1,1.3.52,2,2,0,0,1,.54,1.37V60a2.38,2.38,0,0,1-.23,1,1.69,1.69,0,0,1-.64.71,1.82,1.82,0,0,1-1,.25,1.71,1.71,0,0,1-1.34-.55A2.14,2.14,0,0,1,37.87,60Zm.89.08A1.59,1.59,0,0,0,39,61a.81.81,0,0,0,.7.34.8.8,0,0,0,.7-.35,1.72,1.72,0,0,0,.25-1,1.53,1.53,0,0,0-.26-.95.82.82,0,0,0-.7-.35A.79.79,0,0,0,39,59,1.72,1.72,0,0,0,38.76,60Z"/><path d="M44,60H42.11V59.3H44Z"/><path d="M15.26,67a2.37,2.37,0,0,1-.42,1.47,1.46,1.46,0,0,1-2.16.12v1.87h-.89V65h.82l0,.4a1.32,1.32,0,0,1,1.07-.48,1.38,1.38,0,0,1,1.14.55,2.4,2.4,0,0,1,.41,1.49Zm-.89-.08a1.72,1.72,0,0,0-.23-.94.79.79,0,0,0-.68-.35.82.82,0,0,0-.78.45v1.76a.82.82,0,0,0,.79.46.76.76,0,0,0,.66-.34A1.82,1.82,0,0,0,14.37,66.91Z"/><path d="M18.38,68.93a1.33,1.33,0,0,1-.1-.37,1.38,1.38,0,0,1-1,.44,1.39,1.39,0,0,1-1-.34,1.07,1.07,0,0,1-.37-.84,1.1,1.1,0,0,1,.47-1,2.23,2.23,0,0,1,1.34-.34h.55v-.26a.69.69,0,0,0-.17-.49.67.67,0,0,0-.53-.19.8.8,0,0,0-.5.15.49.49,0,0,0-.19.39H16a1,1,0,0,1,.22-.61,1.36,1.36,0,0,1,.58-.44,2.05,2.05,0,0,1,.83-.17,1.66,1.66,0,0,1,1.11.35,1.27,1.27,0,0,1,.43,1V68a2,2,0,0,0,.15.85v.06Zm-1-.64a1,1,0,0,0,.5-.13.88.88,0,0,0,.35-.34v-.75h-.48a1.33,1.33,0,0,0-.74.17.56.56,0,0,0-.25.49.5.5,0,0,0,.17.41A.64.64,0,0,0,17.4,68.29Z"/><path d="M23.07,66.05a.8.8,0,0,1-.16.49,1,1,0,0,1-.45.35.91.91,0,0,1,.68.92,1,1,0,0,1-.44.87,1.93,1.93,0,0,1-1.19.32,2.18,2.18,0,0,1-.82-.15,1.32,1.32,0,0,1-.59-.43,1.15,1.15,0,0,1-.2-.67h.88a.48.48,0,0,0,.22.41.85.85,0,0,0,.54.16.82.82,0,0,0,.52-.15.56.56,0,0,0,0-.81.85.85,0,0,0-.52-.13h-.64v-.64h.66c.4,0,.59-.17.59-.49a.44.44,0,0,0-.17-.38.73.73,0,0,0-.47-.14.77.77,0,0,0-.49.15.42.42,0,0,0-.21.36H20a1,1,0,0,1,.44-.86,1.79,1.79,0,0,1,1.11-.33,1.9,1.9,0,0,1,1.15.3A1,1,0,0,1,23.07,66.05Z"/><path d="M25.77,65.19a1.51,1.51,0,0,1,1.19.5A1.93,1.93,0,0,1,27.41,67v0a2,2,0,0,1-.49,1.39,1.9,1.9,0,0,1-2.64,0,2.09,2.09,0,0,1-.5-1.48v-.26a3.94,3.94,0,0,1,.45-2,2,2,0,0,1,1.36-.93,1.8,1.8,0,0,0,.65-.22.37.37,0,0,0,.15-.31h.72a1.34,1.34,0,0,1-.12.6.94.94,0,0,1-.37.37,3,3,0,0,1-.86.27,1.41,1.41,0,0,0-1.24,1.25A1.71,1.71,0,0,1,25.77,65.19Zm-.18.71a.86.86,0,0,0-.68.29,1.42,1.42,0,0,0-.24.9,1.45,1.45,0,0,0,.24.89.89.89,0,0,0,1.37,0,1.56,1.56,0,0,0,.25-1,1.21,1.21,0,0,0-.25-.81A.83.83,0,0,0,25.59,65.9Z"/><path d="M27.94,66.91a2.38,2.38,0,0,1,.23-1,1.66,1.66,0,0,1,.65-.71,1.82,1.82,0,0,1,1-.26,1.75,1.75,0,0,1,1.3.52,2,2,0,0,1,.54,1.37V67A2.38,2.38,0,0,1,31.4,68a1.69,1.69,0,0,1-.64.71,1.85,1.85,0,0,1-1,.25,1.71,1.71,0,0,1-1.34-.55A2.14,2.14,0,0,1,27.94,67Zm.89.08a1.66,1.66,0,0,0,.25,1,.83.83,0,0,0,.71.34.8.8,0,0,0,.7-.35,1.72,1.72,0,0,0,.25-1,1.6,1.6,0,0,0-.26-1,.82.82,0,0,0-.7-.35.79.79,0,0,0-.69.35A1.72,1.72,0,0,0,28.83,67Z"/><path d="M35.85,67a2.37,2.37,0,0,1-.42,1.47,1.46,1.46,0,0,1-2.16.12v1.87h-.89V65h.82l0,.4a1.32,1.32,0,0,1,1.07-.48,1.38,1.38,0,0,1,1.14.55,2.4,2.4,0,0,1,.41,1.49ZM35,66.91a1.72,1.72,0,0,0-.23-.94.79.79,0,0,0-.68-.35.82.82,0,0,0-.78.45v1.76a.82.82,0,0,0,.79.46.76.76,0,0,0,.66-.34A1.82,1.82,0,0,0,35,66.91Z"/><path d="M40,68.93h-.89v-1.6H37.53v1.6h-.89V65h.89v1.65h1.54V65H40Z"/><path d="M43.27,68.93a1.33,1.33,0,0,1-.1-.37,1.5,1.5,0,0,1-2,.1,1,1,0,0,1-.38-.84,1.1,1.1,0,0,1,.47-1,2.23,2.23,0,0,1,1.34-.34h.55v-.26a.69.69,0,0,0-.17-.49.67.67,0,0,0-.53-.19.77.77,0,0,0-.49.15.5.5,0,0,0-.2.39h-.89a1,1,0,0,1,.22-.61,1.33,1.33,0,0,1,.59-.44,2,2,0,0,1,.83-.17,1.65,1.65,0,0,1,1.1.35,1.27,1.27,0,0,1,.43,1V68a2,2,0,0,0,.15.85v.06Zm-1-.64a1,1,0,0,0,.5-.13.82.82,0,0,0,.35-.34v-.75h-.48a1.33,1.33,0,0,0-.74.17.56.56,0,0,0-.25.49.5.5,0,0,0,.17.41A.64.64,0,0,0,42.29,68.29Z"/><path d="M48.13,65v4h-.88V67.48h-.83l-.85,1.45h-.92l.93-1.6a1.24,1.24,0,0,1-.56-.44,1.17,1.17,0,0,1,.23-1.56A1.74,1.74,0,0,1,46.4,65Zm-2.42,1.29a.51.51,0,0,0,.19.4.67.67,0,0,0,.47.16h.88V65.67h-.82a.77.77,0,0,0-.52.17A.53.53,0,0,0,45.71,66.26Z"/><path d="M9.3,74.36H8.85v1.57H8V72h.89v1.58h.39L10.34,72h1.09L10,73.87l1.56,2.06H10.4Z"/><path d="M11.67,73.91a2.38,2.38,0,0,1,.23-1,1.6,1.6,0,0,1,.65-.71,1.82,1.82,0,0,1,1-.26,1.75,1.75,0,0,1,1.3.52,2.07,2.07,0,0,1,.54,1.37V74A2.38,2.38,0,0,1,15.13,75a1.72,1.72,0,0,1-.65.71,1.82,1.82,0,0,1-1,.25,1.74,1.74,0,0,1-1.34-.55,2.18,2.18,0,0,1-.5-1.49Zm.89.08a1.59,1.59,0,0,0,.25,1,.81.81,0,0,0,.7.34.81.81,0,0,0,.71-.35,1.8,1.8,0,0,0,.25-1,1.6,1.6,0,0,0-.26-1,.84.84,0,0,0-.7-.35.79.79,0,0,0-.69.35A1.65,1.65,0,0,0,12.56,74Z"/><path d="M19.46,75.93h-.89v-1.6H17v1.6h-.89V72H17v1.65h1.54V72h.89Z"/><path d="M22,75.29a.8.8,0,0,0,.55-.19.65.65,0,0,0,.23-.48h.84a1.24,1.24,0,0,1-.23.69,1.55,1.55,0,0,1-.59.51,1.76,1.76,0,0,1-.79.18,1.7,1.7,0,0,1-1.32-.53A2.13,2.13,0,0,1,20.24,74v-.09a2.1,2.1,0,0,1,.48-1.45A1.71,1.71,0,0,1,22,71.89a1.64,1.64,0,0,1,1.16.42,1.46,1.46,0,0,1,.46,1.08h-.84a.79.79,0,0,0-.23-.56.72.72,0,0,0-.55-.22.79.79,0,0,0-.67.31,1.56,1.56,0,0,0-.24,1V74a1.66,1.66,0,0,0,.23,1A.79.79,0,0,0,22,75.29Z"/><path d="M27.45,72.67H26.17v3.26h-.89V72.67H24V72h3.44Z"/><path d="M31.51,74a2.37,2.37,0,0,1-.41,1.47,1.47,1.47,0,0,1-2.17.12v1.87H28V72h.82l0,.4A1.3,1.3,0,0,1,30,71.89a1.35,1.35,0,0,1,1.14.55,2.34,2.34,0,0,1,.41,1.49Zm-.88-.08a1.64,1.64,0,0,0-.24-.94.77.77,0,0,0-.67-.35.82.82,0,0,0-.79.45v1.76a.82.82,0,0,0,.79.46.76.76,0,0,0,.67-.34A1.82,1.82,0,0,0,30.63,73.91Z"/><path d="M33.61,74.66,34.42,72h.95l-1.58,4.56a1.27,1.27,0,0,1-1.23,1,1.42,1.42,0,0,1-.43-.07v-.69h.17a.69.69,0,0,0,.78-.53l.13-.34L31.81,72h1Z"/><path d="M37.29,74.36h-.45v1.57H36V72h.89v1.58h.39L38.32,72h1.1L38,73.87l1.55,2.06H38.38Z"/><path d="M40.06,72H41v3.25H42.5V72h.89v3.25h.54l-.07,1.89h-.81V75.93h-3Z"/><path d="M47,72h.88v4H47V73.29l-1.56,2.64h-.88V72h.88v2.64Z"/><path d="M52,72v4h-.88V74.48h-.83l-.85,1.45h-.92l.93-1.6a1.24,1.24,0,0,1-.56-.44,1.14,1.14,0,0,1-.2-.65,1.11,1.11,0,0,1,.43-.91A1.72,1.72,0,0,1,50.3,72Zm-2.42,1.29a.48.48,0,0,0,.19.4.67.67,0,0,0,.47.16h.88V72.67h-.82a.77.77,0,0,0-.52.17A.53.53,0,0,0,49.61,73.26Z"/><path class="cls-1" d="M18.21,48.62a.71.71,0,0,1-.71-.71V15.46a.71.71,0,0,1,.71-.7.7.7,0,0,1,.7.7V47.91A.7.7,0,0,1,18.21,48.62Z"/><path class="cls-1" d="M41.79,48.62a.7.7,0,0,1-.7-.71V15.46a.7.7,0,0,1,.7-.7.71.71,0,0,1,.71.7V47.91A.71.71,0,0,1,41.79,48.62Z"/><path class="cls-1" d="M27.93,31.5H26.46v-.25a.36.36,0,0,0-.36-.36h-.87a.37.37,0,0,0-.37.36V34a.38.38,0,0,0,.37.39h.87a.37.37,0,0,0,.36-.39V32.3H26a.38.38,0,0,1-.21-.07.38.38,0,0,0,.21.07h1.92a.4.4,0,0,0,.4-.4A.41.41,0,0,0,27.93,31.5Z"/><path class="cls-1" d="M22.19,44.87a.71.71,0,0,1-.71-.71V20.74a.7.7,0,0,1,.71-.7.7.7,0,0,1,.7.7V44.16A.7.7,0,0,1,22.19,44.87Z"/><path class="cls-1" d="M37.81,44.87a.7.7,0,0,1-.7-.71V20.74a.7.7,0,0,1,.7-.7.7.7,0,0,1,.71.7V44.16A.71.71,0,0,1,37.81,44.87Z"/><path class="cls-1" d="M39.85,13.81H20.15a.71.71,0,0,1,0-1.41h19.7a.71.71,0,0,1,0,1.41Z"/><path class="cls-1" d="M37.11,18H22.89a.7.7,0,0,1-.7-.7.7.7,0,0,1,.7-.71H37.11a.7.7,0,0,1,.7.71A.7.7,0,0,1,37.11,18Z"/><path class="cls-1" d="M37.11,47.77H22.89a.71.71,0,0,1,0-1.41H37.11a.71.71,0,0,1,0,1.41Z"/></svg>