<?xml version="1.0" standalone="no"?>
<!DOCTYPE svg PUBLIC "-//W3C//DTD SVG 20010904//EN"
 "http://www.w3.org/TR/2001/REC-SVG-20010904/DTD/svg10.dtd">
<svg version="1.0" xmlns="http://www.w3.org/2000/svg"
 width="700.000000pt" height="700.000000pt" viewBox="0 0 700.000000 700.000000"
 preserveAspectRatio="xMidYMid meet">
<metadata>
Created by potrace 1.11, written by Peter Selinger 2001-2013
</metadata>
<g transform="translate(0.000000,700.000000) scale(0.100000,-0.100000)"
fill="#000000" stroke="none">
<path d="M3462 5298 c142 -227 1034 -1657 1050 -1684 18 -31 18 -31 -10 -70
-15 -21 -85 -123 -154 -225 l-127 -186 245 -384 244 -384 -498 -3 -498 -2
-104 -135 c-57 -74 -106 -135 -110 -135 -3 0 -384 551 -846 1225 l-839 1225
-568 0 c-452 0 -567 -3 -561 -12 28 -48 2808 -3998 2814 -3998 4 0 641 901
1415 2003 l1407 2002 -566 3 c-311 1 -566 5 -566 8 0 5 181 275 447 667 l114
167 -1170 0 -1171 0 52 -82z"/>
</g>
</svg>
