<svg id="Слой_1" data-name="Слой 1" xmlns="http://www.w3.org/2000/svg" viewBox="0 0 60 80"><defs><style>.cls-1{fill:#ed700e;}.cls-1,.cls-2{stroke:#ed700e;stroke-miterlimit:10;stroke-width:0.75px;}.cls-2,.cls-3{fill:none;}.cls-4{fill:#1d1d1b;}</style></defs><title>Иконки утп</title><polygon class="cls-1" points="16.08 55.72 16.99 57.57 19.03 57.87 17.56 59.3 17.91 61.34 16.08 60.38 14.25 61.34 14.6 59.3 13.13 57.87 15.17 57.57 16.08 55.72"/><polygon class="cls-1" points="25.36 55.72 26.27 57.57 28.31 57.87 26.84 59.3 27.19 61.34 25.36 60.38 23.53 61.34 23.88 59.3 22.41 57.87 24.45 57.57 25.36 55.72"/><polygon class="cls-2" points="34.64 55.72 35.55 57.57 37.59 57.87 36.12 59.3 36.47 61.34 34.64 60.38 32.81 61.34 33.16 59.3 31.69 57.87 33.73 57.57 34.64 55.72"/><polygon class="cls-2" points="43.92 55.72 44.83 57.57 46.87 57.87 45.4 59.3 45.75 61.34 43.92 60.38 42.09 61.34 42.44 59.3 40.97 57.87 43.01 57.57 43.92 55.72"/><path class="cls-3" d="M36.55,22.74l-1,4.29-10-2.38,1-4.29,1.39.33.42-1.78-.14,0L16.43,26.23,31,35.31l14.58-9.08-9.87-6.14-.56,2.32ZM23,25.58l6,1.07-5.51,1.84Zm7,6-1.77-.36,2-3.19Zm5.44,0-3.89-4.32,5.78,2.05Z"/><polygon class="cls-4" points="23 25.58 23.53 28.49 29.04 26.64 23 25.58"/><polygon class="cls-4" points="35.4 31.53 37.29 29.26 31.51 27.21 35.4 31.53"/><polygon class="cls-4" points="29.96 31.53 30.17 27.98 28.19 31.17 29.96 31.53"/><path class="cls-4" d="M13.93,26.23a.87.87,0,0,0,.42.73l16.2,10.09a.84.84,0,0,0,.46.13.84.84,0,0,0,.45-.13L47.66,27a.83.83,0,0,0,.41-.73.86.86,0,0,0-.41-.73L36.14,18.32l-.42,1.77,9.87,6.14L31,35.31,16.43,26.23l11.82-7.36-2.36-.56L14.34,25.5A.87.87,0,0,0,13.93,26.23Z"/><path class="cls-4" d="M47.21,31.14a.86.86,0,0,0-.61.25.87.87,0,0,0,0,1.22.86.86,0,1,0,.61-1.47Z"/><path class="cls-4" d="M44.06,33a.87.87,0,0,0-.28,1.19.9.9,0,0,0,.74.4.92.92,0,0,0,.45-.12.87.87,0,0,0,.27-1.19A.85.85,0,0,0,44.06,33Z"/><path class="cls-4" d="M36,38a.86.86,0,0,0-.27,1.19.88.88,0,0,0,.73.41.87.87,0,0,0,.45-.13.86.86,0,0,0,.28-1.19A.87.87,0,0,0,36,38Z"/><path class="cls-4" d="M33.25,39.68A.86.86,0,0,0,33,40.86a.84.84,0,0,0,.73.41.81.81,0,0,0,.45-.13.86.86,0,0,0-.91-1.46Z"/><path class="cls-4" d="M38.66,36.32a.86.86,0,0,0,.45,1.59.9.9,0,0,0,.45-.13.86.86,0,0,0,.27-1.18A.83.83,0,0,0,38.66,36.32Z"/><path class="cls-4" d="M41.35,34.64a.86.86,0,0,0-.27,1.18.88.88,0,0,0,.73.41.79.79,0,0,0,.45-.13.85.85,0,0,0,.28-1.18A.86.86,0,0,0,41.35,34.64Z"/><path class="cls-4" d="M30.4,41.48a.85.85,0,0,0,0,1.22.86.86,0,0,0,1.21,0,.85.85,0,0,0,0-1.22.84.84,0,0,0-.6-.25A.86.86,0,0,0,30.4,41.48Z"/><path class="cls-4" d="M27.57,40a.85.85,0,0,0,.72,1.31.88.88,0,0,0,.74-.4A.86.86,0,1,0,27.57,40Z"/><path class="cls-4" d="M16.77,33.22A.87.87,0,0,0,17,34.41a1,1,0,0,0,.45.13.89.89,0,0,0,.74-.41A.86.86,0,0,0,18,33,.85.85,0,0,0,16.77,33.22Z"/><path class="cls-4" d="M24.87,38.27a.86.86,0,0,0,.28,1.19.93.93,0,0,0,.45.13.88.88,0,0,0,.73-.41.86.86,0,1,0-1.46-.91Z"/><path class="cls-4" d="M22.17,36.59a.86.86,0,1,0,1.18-.28A.86.86,0,0,0,22.17,36.59Z"/><path class="cls-4" d="M19.47,34.91a.86.86,0,0,0,.27,1.18.85.85,0,0,0,1.18-.28.86.86,0,0,0-.27-1.18A.87.87,0,0,0,19.47,34.91Z"/><path class="cls-4" d="M14.8,32.86a.86.86,0,0,0,.61-.25.87.87,0,0,0,0-1.22.86.86,0,1,0-.61,1.47Z"/><path class="cls-4" d="M46.76,37,31,46.84,15.25,37a.86.86,0,0,0-.91,1.46L30.55,48.58a.87.87,0,0,0,.45.13.9.9,0,0,0,.45-.13L47.66,38.49a.86.86,0,0,0,.27-1.18A.84.84,0,0,0,46.76,37Z"/><path class="cls-4" d="M11.31,13.55l.45-1.92,17.38,4.15-.14.6a14,14,0,0,0,1.64-1.51l.17-.7,4.76,1.13L35,17.63l1.12.69.65-2.73,1.38.33,1-4.29-10-2.37-1,4.28,1.38.33-.16.69-18-4.29a.63.63,0,0,0-.75.46l-.75,3.14a.65.65,0,0,0,.08.47.65.65,0,0,0,.39.28l15.48,3.69,1.49-.93Z"/><path class="cls-4" d="M34,22.12,29.18,21l.43-1.8-1.36-.31.14,0L28,20.69l-1.39-.33-1,4.29,10,2.38,1-4.29-1.39-.33.56-2.32-1.12-.7Z"/><polygon class="cls-4" points="34.6 19.39 35.72 20.09 36.14 18.32 35.02 17.63 34.6 19.39"/><path class="cls-4" d="M30.51,15.41l-1.51,1-.32,1.31-1.3-.31-1.49.93,2.5.6S30.64,15.33,30.51,15.41Z"/><polygon class="cls-4" points="29.34 21.31 28.22 20.63 29.49 15.31 30.7 15.62 29.34 21.31"/><path d="M15.62,70.94h-.93V66.36H12.34v4.58h-.92V65.61h4.2Z"/><path d="M20.12,69a2.34,2.34,0,0,1-.42,1.47,1.45,1.45,0,0,1-2.17.12v1.88h-.89V67h.82l0,.4a1.45,1.45,0,0,1,2.2.07,2.39,2.39,0,0,1,.42,1.5Zm-.89-.07A1.61,1.61,0,0,0,19,68a.74.74,0,0,0-.67-.35.82.82,0,0,0-.79.45v1.76a.86.86,0,0,0,.8.46A.77.77,0,0,0,19,70,1.78,1.78,0,0,0,19.23,68.93Z"/><path d="M20.7,68.93a2.38,2.38,0,0,1,.23-1.05,1.75,1.75,0,0,1,.65-.72,1.81,1.81,0,0,1,1-.25,1.72,1.72,0,0,1,1.3.51,2,2,0,0,1,.54,1.37V69a2.38,2.38,0,0,1-.23,1,1.58,1.58,0,0,1-.64.71,1.85,1.85,0,0,1-1,.26,1.71,1.71,0,0,1-1.34-.56A2.12,2.12,0,0,1,20.7,69Zm.89.07a1.66,1.66,0,0,0,.25,1,.84.84,0,0,0,.71.35.82.82,0,0,0,.7-.35,1.76,1.76,0,0,0,.25-1,1.63,1.63,0,0,0-.26-1,.87.87,0,0,0-1.39,0A1.72,1.72,0,0,0,21.59,69Z"/><path d="M28.32,70.94h-.89V69.62a2.92,2.92,0,0,1-.73.08,1.79,1.79,0,0,1-1.24-.39A1.42,1.42,0,0,1,25,68.19V67h.89v1.21a.82.82,0,0,0,.19.62.85.85,0,0,0,.59.18,3.1,3.1,0,0,0,.73-.09V67h.89Z"/><path d="M32.62,70.94h-.89v-1.6H30.19v1.6H29.3V67h.89v1.65h1.54V67h.89Z"/><path d="M33.4,68.93a2.38,2.38,0,0,1,.23-1.05,1.68,1.68,0,0,1,.65-.72,1.81,1.81,0,0,1,1-.25,1.74,1.74,0,0,1,1.3.51,2.09,2.09,0,0,1,.54,1.37V69a2.38,2.38,0,0,1-.22,1,1.6,1.6,0,0,1-.65.71,1.83,1.83,0,0,1-1,.26,1.73,1.73,0,0,1-1.34-.56A2.16,2.16,0,0,1,33.4,69Zm.89.07a1.59,1.59,0,0,0,.25,1,.82.82,0,0,0,.7.35A.84.84,0,0,0,36,70a1.84,1.84,0,0,0,.25-1,1.63,1.63,0,0,0-.26-1,.84.84,0,0,0-.7-.35.85.85,0,0,0-.7.35A1.72,1.72,0,0,0,34.29,69Z"/><path d="M39.46,70.31a.83.83,0,0,0,.56-.2.69.69,0,0,0,.23-.48h.84a1.32,1.32,0,0,1-.23.69,1.46,1.46,0,0,1-.59.51,1.83,1.83,0,0,1-2.11-.35A2.11,2.11,0,0,1,37.67,69V68.9a2.11,2.11,0,0,1,.48-1.45,1.68,1.68,0,0,1,1.32-.54,1.63,1.63,0,0,1,1.15.41,1.5,1.5,0,0,1,.47,1.08h-.84a.86.86,0,0,0-.23-.56.79.79,0,0,0-.56-.22.76.76,0,0,0-.66.32,1.52,1.52,0,0,0-.24,1V69a1.66,1.66,0,0,0,.23,1A.79.79,0,0,0,39.46,70.31Z"/><path d="M44.88,67.69H43.59v3.25H42.7V67.69H41.43V67h3.45Z"/><path d="M46.43,68.24h.87a2,2,0,0,1,.85.17,1.27,1.27,0,0,1,.55.47,1.3,1.3,0,0,1,.19.71,1.22,1.22,0,0,1-.43,1,1.69,1.69,0,0,1-1.15.37H45.54V67h.89Zm0,.72v1.27h.87a.76.76,0,0,0,.51-.16.56.56,0,0,0,.19-.46.62.62,0,0,0-.19-.48.72.72,0,0,0-.5-.17Z"/><path d="M11.15,77.94h-.89V74.7H8.72v3.24H7.83V74h3.32Z"/><path d="M11.93,75.93a2.38,2.38,0,0,1,.23-1.05,1.75,1.75,0,0,1,.65-.72,1.81,1.81,0,0,1,1-.25,1.74,1.74,0,0,1,1.3.51,2.09,2.09,0,0,1,.54,1.37V76a2.38,2.38,0,0,1-.23,1,1.58,1.58,0,0,1-.64.71,1.85,1.85,0,0,1-1,.26,1.71,1.71,0,0,1-1.34-.56A2.12,2.12,0,0,1,11.93,76Zm.89.07a1.66,1.66,0,0,0,.25,1,.84.84,0,0,0,.71.35.82.82,0,0,0,.7-.35,1.76,1.76,0,0,0,.25-1,1.63,1.63,0,0,0-.26-1,.84.84,0,0,0-.7-.35.82.82,0,0,0-.69.35A1.72,1.72,0,0,0,12.82,76Z"/><path d="M16.44,77.94V74H18a2.2,2.2,0,0,1,1.24.29.93.93,0,0,1,.43.81.79.79,0,0,1-.17.49,1.12,1.12,0,0,1-.51.34,1.12,1.12,0,0,1,.62.32.84.84,0,0,1,.22.58,1,1,0,0,1-.4.85,2.08,2.08,0,0,1-1.18.28Zm.89-2.32h.73c.5,0,.76-.15.76-.45s-.24-.47-.72-.48h-.77Zm0,.64v1h1c.46,0,.68-.16.68-.49s-.23-.49-.69-.49Z"/><path d="M22.39,78A1.82,1.82,0,0,1,21,77.48a1.87,1.87,0,0,1-.53-1.41V76a2.39,2.39,0,0,1,.23-1.06,1.63,1.63,0,0,1,.64-.73,1.73,1.73,0,0,1,.92-.26,1.56,1.56,0,0,1,1.25.51A2.19,2.19,0,0,1,24,75.89v.36H21.39a1.16,1.16,0,0,0,.32.77,1,1,0,0,0,.73.29,1.19,1.19,0,0,0,1-.5l.48.46a1.6,1.6,0,0,1-.63.55A2,2,0,0,1,22.39,78Zm-.11-3.4a.76.76,0,0,0-.59.26,1.32,1.32,0,0,0-.29.71h1.7v-.06a1.08,1.08,0,0,0-.24-.68A.75.75,0,0,0,22.28,74.62Z"/><path d="M28.14,76a2.34,2.34,0,0,1-.42,1.47A1.35,1.35,0,0,1,26.6,78a1.34,1.34,0,0,1-1.05-.43v1.88h-.89V74h.82l0,.4a1.45,1.45,0,0,1,2.2.07,2.39,2.39,0,0,1,.42,1.5Zm-.89-.07A1.61,1.61,0,0,0,27,75a.74.74,0,0,0-.67-.35.82.82,0,0,0-.79.45v1.76a.84.84,0,0,0,.79.46A.77.77,0,0,0,27,77,1.78,1.78,0,0,0,27.25,75.93Z"/><path d="M30.26,75.29,31,74h1l-1.21,2,1.25,2h-1l-.79-1.35-.79,1.35h-1l1.25-2-1.2-2h1Z"/><path d="M36,77.94h-.89v-1.6H33.53v1.6h-.89V74h.89v1.65h1.54V74H36Z"/><path d="M36.74,75.93A2.38,2.38,0,0,1,37,74.88a1.75,1.75,0,0,1,.65-.72,1.81,1.81,0,0,1,1-.25,1.72,1.72,0,0,1,1.3.51,2,2,0,0,1,.54,1.37V76a2.38,2.38,0,0,1-.23,1,1.58,1.58,0,0,1-.64.71,1.85,1.85,0,0,1-1,.26,1.71,1.71,0,0,1-1.34-.56A2.12,2.12,0,0,1,36.74,76Zm.89.07a1.66,1.66,0,0,0,.25,1,.84.84,0,0,0,.71.35.82.82,0,0,0,.7-.35,1.76,1.76,0,0,0,.25-1,1.63,1.63,0,0,0-.26-1,.87.87,0,0,0-1.39,0A1.72,1.72,0,0,0,37.63,76Z"/><path d="M42.81,77.31a.81.81,0,0,0,.55-.2.65.65,0,0,0,.23-.48h.84a1.24,1.24,0,0,1-.23.69,1.44,1.44,0,0,1-.58.51,1.71,1.71,0,0,1-.8.19,1.68,1.68,0,0,1-1.32-.54A2.11,2.11,0,0,1,41,76V75.9a2.07,2.07,0,0,1,.49-1.45,1.67,1.67,0,0,1,1.31-.54,1.63,1.63,0,0,1,1.15.41,1.46,1.46,0,0,1,.47,1.08h-.84a.81.81,0,0,0-.23-.56.76.76,0,0,0-.55-.22.79.79,0,0,0-.67.32,1.52,1.52,0,0,0-.24,1V76a1.66,1.66,0,0,0,.23,1A.8.8,0,0,0,42.81,77.31Z"/><path d="M48.22,74.69H46.94v3.25h-.89V74.69H44.78V74h3.44Z"/><path d="M51.29,74h.88v4h-.88V75.3l-1.55,2.64h-.89V74h.89v2.65Z"/></svg>