<svg id="Слой_1" data-name="Слой 1" xmlns="http://www.w3.org/2000/svg" viewBox="0 0 40 58"><defs><style>.cls-1{fill:#ed700e;}.cls-1,.cls-2{stroke:#ed700e;stroke-miterlimit:10;stroke-width:0.75px;}.cls-2,.cls-3{fill:none;}.cls-4{fill:#1d1d1b;}</style></defs><title>Иконки утп мобильные</title><polygon class="cls-1" points="7.32 50.01 8.24 51.86 10.28 52.16 8.8 53.6 9.15 55.63 7.32 54.67 5.5 55.63 5.85 53.6 4.37 52.16 6.41 51.86 7.32 50.01"/><polygon class="cls-1" points="16.6 50.01 17.52 51.86 19.56 52.16 18.08 53.6 18.43 55.63 16.6 54.67 14.78 55.63 15.13 53.6 13.65 52.16 15.69 51.86 16.6 50.01"/><polygon class="cls-2" points="25.88 50.01 26.8 51.86 28.84 52.16 27.36 53.6 27.71 55.63 25.88 54.67 24.06 55.63 24.41 53.6 22.93 52.16 24.97 51.86 25.88 50.01"/><polygon class="cls-2" points="35.16 50.01 36.08 51.86 38.12 52.16 36.64 53.6 36.99 55.63 35.16 54.67 33.34 55.63 33.69 53.6 32.21 52.16 34.25 51.86 35.16 50.01"/><path class="cls-3" d="M27.79,17l-1,4.29-10-2.38,1-4.29,1.39.33.43-1.78-.15,0L7.67,20.53,22.25,29.6l14.58-9.07L27,14.38l-.55,2.32ZM14.24,19.88l6,1.06-5.51,1.85Zm7,5.95-1.78-.37,2-3.18Zm5.43,0L22.76,21.5l5.78,2.06Z"/><polygon class="cls-4" points="14.24 19.88 14.77 22.79 20.28 20.94 14.24 19.88"/><polygon class="cls-4" points="26.64 25.83 28.54 23.55 22.76 21.5 26.64 25.83"/><polygon class="cls-4" points="21.21 25.83 21.41 22.28 19.43 25.46 21.21 25.83"/><path class="cls-4" d="M5.17,20.53a.88.88,0,0,0,.42.73L21.8,31.35a.87.87,0,0,0,.45.13.9.9,0,0,0,.45-.13L38.91,21.26a.86.86,0,0,0,0-1.47L27.38,12.62,27,14.38l9.87,6.15L22.25,29.6,7.67,20.53l11.82-7.37-2.36-.56L5.58,19.79A.87.87,0,0,0,5.17,20.53Z"/><path class="cls-4" d="M38.46,25.43a.85.85,0,0,0-.61.25.87.87,0,0,0,0,1.22.85.85,0,0,0,.61.25.86.86,0,0,0,.61-.25.87.87,0,0,0,0-1.22A.86.86,0,0,0,38.46,25.43Z"/><path class="cls-4" d="M35.3,27.25A.85.85,0,0,0,35,28.43a.86.86,0,0,0,.73.41.9.9,0,0,0,.45-.13.87.87,0,0,0,.27-1.19A.85.85,0,0,0,35.3,27.25Z"/><path class="cls-4" d="M27.2,32.29a.86.86,0,0,0,.46,1.59.84.84,0,0,0,.45-.13.86.86,0,0,0-.91-1.46Z"/><path class="cls-4" d="M24.49,34A.86.86,0,0,0,25,35.56a.79.79,0,0,0,.45-.13.85.85,0,0,0,.28-1.18A.86.86,0,0,0,24.49,34Z"/><path class="cls-4" d="M29.9,30.61a.86.86,0,0,0,.45,1.59.79.79,0,0,0,.45-.13.86.86,0,1,0-.9-1.46Z"/><path class="cls-4" d="M32.6,28.93a.86.86,0,0,0-.28,1.18.89.89,0,0,0,.74.41.84.84,0,0,0,.45-.13.86.86,0,0,0-.91-1.46Z"/><path class="cls-4" d="M21.64,35.77a.87.87,0,1,0,.61-.25A.86.86,0,0,0,21.64,35.77Z"/><path class="cls-4" d="M18.81,34.24a.86.86,0,0,0,.28,1.19.93.93,0,0,0,.45.13.88.88,0,0,0,.73-.41.86.86,0,1,0-1.46-.91Z"/><path class="cls-4" d="M8,27.52a.85.85,0,0,0,.28,1.18.84.84,0,0,0,.45.13A.86.86,0,1,0,8,27.52Z"/><path class="cls-4" d="M16.12,32.57a.86.86,0,0,0,.27,1.18.85.85,0,0,0,1.18-.28.85.85,0,1,0-1.45-.9Z"/><path class="cls-4" d="M13.41,30.88a.85.85,0,0,0,.28,1.18.84.84,0,0,0,.45.13.86.86,0,0,0,.73-.41.85.85,0,0,0-.28-1.18A.87.87,0,0,0,13.41,30.88Z"/><path class="cls-4" d="M10.71,29.2A.87.87,0,0,0,11,30.39a1,1,0,0,0,.45.13.89.89,0,0,0,.74-.41.86.86,0,1,0-1.46-.91Z"/><path class="cls-4" d="M6,27.15a.85.85,0,1,0-.61-.25A.84.84,0,0,0,6,27.15Z"/><path class="cls-4" d="M38,31.33,22.25,41.14,6.49,31.33a.85.85,0,0,0-1.18.27.86.86,0,0,0,.27,1.18L21.79,42.87a.81.81,0,0,0,.45.13.79.79,0,0,0,.45-.13L38.9,32.78a.86.86,0,0,0,.27-1.18A.83.83,0,0,0,38,31.33Z"/><path class="cls-4" d="M2.55,7.84,3,5.93l17.37,4.14-.14.6a14.83,14.83,0,0,0,1.64-1.5l.17-.71,4.76,1.13-.55,2.33,1.12.7L28,9.88l1.39.33,1-4.28-10-2.38-1,4.29,1.38.33-.16.68-18-4.29a.68.68,0,0,0-.48.08A.65.65,0,0,0,1.93,5L1.19,8.16a.64.64,0,0,0,.07.47.61.61,0,0,0,.39.28L17.13,12.6l1.5-.93Z"/><path class="cls-4" d="M25.19,16.41l-4.76-1.14.43-1.79-1.37-.32.15,0L19.21,15l-1.39-.33-1,4.29,10,2.38,1-4.29-1.38-.33L27,14.38l-1.12-.7Z"/><polygon class="cls-4" points="25.84 13.68 26.96 14.38 27.38 12.62 26.26 11.92 25.84 13.68"/><path class="cls-4" d="M21.75,9.7l-1.51,1L19.93,12l-1.3-.31-1.5.93,2.51.6S21.89,9.62,21.75,9.7Z"/><polygon class="cls-4" points="20.59 15.61 19.46 14.92 20.73 9.61 21.94 9.91 20.59 15.61"/></svg>