<svg id="Слой_1" data-name="Слой 1" xmlns="http://www.w3.org/2000/svg" viewBox="0 0 40 58"><defs><style>.cls-1{fill:none;}</style></defs><title>Иконки утп мобильные</title><path class="cls-1" d="M19.4,18l.15.14-.25-.31C19.34,17.84,19.36,17.9,19.4,18Z"/><path class="cls-1" d="M9,24.94l-.44,0a4.61,4.61,0,0,1-3.09-1.63,4.53,4.53,0,0,1-1.06-2.7c0-.13,0-.27,0-.4A4.37,4.37,0,0,1,5.72,17a4.75,4.75,0,0,1-.43-2.41,3.6,3.6,0,0,1,0-.36l.06-.3A4.81,4.81,0,0,1,7,11.3a4.74,4.74,0,0,1,2.87-1.1h.44l.4,0a4.84,4.84,0,0,1,2.13.85,4.45,4.45,0,0,1,3.29-.71c.16,0,.31.06.47.09a4.44,4.44,0,0,1,1.29.53,4.77,4.77,0,0,1,1.27,1l.19.23.13.14a4.43,4.43,0,0,1,2-.67,4,4,0,0,1,3.55,1.53,4.24,4.24,0,0,1,1,3.11,4.29,4.29,0,0,1-.4,1.42l.88,1a5.53,5.53,0,0,0-6.22-8.2L20,10.7l-.24-.25a6.16,6.16,0,0,0-6.34-1.54L13.16,9,13,8.88a6.84,6.84,0,0,0-2.89-.65,6.76,6.76,0,0,0-6.52,8.5L3.6,17l-.11.21a6.11,6.11,0,0,0,.67,6.89,6.22,6.22,0,0,0,7.08,1.81l-.93-1.12A4.55,4.55,0,0,1,9,24.94Z"/><path class="cls-1" d="M6.94,19.58a2.47,2.47,0,0,1,2.12-2.24l-.15-.18a2.47,2.47,0,0,1,.31-3.49A2.44,2.44,0,0,1,11,13.1a2.47,2.47,0,0,1,1.68.88l.31.37a2.54,2.54,0,0,1,.77-1.12,2.44,2.44,0,0,1,1.81-.57,2.49,2.49,0,0,1,1.68.88l1.82,2.18a2.58,2.58,0,0,1,.75-1,2.4,2.4,0,0,1,3.5.29l1.43,1.7a2.4,2.4,0,0,0,.09-.48A3.13,3.13,0,0,0,24.16,14a2.89,2.89,0,0,0-2.5-1.11,3.16,3.16,0,0,0-1.61.53l-.28.21-.5.47-.4-.55a4.84,4.84,0,0,0-.4-.52l-.22-.25a4,4,0,0,0-1-.76,3.34,3.34,0,0,0-1-.39,2,2,0,0,0-.34-.06,3.28,3.28,0,0,0-2.74.68l-.38.31-.43-.28a3.69,3.69,0,0,0-1.89-.86l-.28,0H10a3.68,3.68,0,0,0-2.23.84,3.63,3.63,0,0,0-1.21,2l0,.18a2.67,2.67,0,0,0,0,.33A3.6,3.6,0,0,0,7,16.82l.26.43-.39.32A3.33,3.33,0,0,0,5.61,20.2v.33a3.46,3.46,0,0,0,3.1,3.23,3.23,3.23,0,0,0,.76,0l-2-2.35A2.44,2.44,0,0,1,6.94,19.58Z"/><path d="M4.16,24.05a6.11,6.11,0,0,1-.67-6.89L3.6,17l-.06-.22a6.76,6.76,0,0,1,6.52-8.5A6.84,6.84,0,0,1,13,8.88l.21.1.22-.07a6.16,6.16,0,0,1,6.34,1.54l.24.25.34-.09a5.53,5.53,0,0,1,6.22,8.2l.78.94a6.7,6.7,0,0,0-7-10.35,7.35,7.35,0,0,0-7.08-1.67A7.91,7.91,0,0,0,2.36,16.8a7.28,7.28,0,0,0,.9,8A7.48,7.48,0,0,0,9,27.49a7,7,0,0,0,3-.7l-.78-.93A6.22,6.22,0,0,1,4.16,24.05Z"/><path d="M8.71,23.76a3.46,3.46,0,0,1-3.1-3.23V20.2a3.33,3.33,0,0,1,1.21-2.63l.39-.32L7,16.82a3.6,3.6,0,0,1-.5-2.13,2.67,2.67,0,0,1,0-.33l0-.18a3.63,3.63,0,0,1,1.21-2A3.68,3.68,0,0,1,10,11.36h.29l.28,0a3.69,3.69,0,0,1,1.89.86l.43.28.38-.31A3.28,3.28,0,0,1,16,11.54a2,2,0,0,1,.34.06,3.34,3.34,0,0,1,1,.39,4,4,0,0,1,1,.76l.22.25a4.84,4.84,0,0,1,.4.52l.4.55.5-.47.28-.21a3.16,3.16,0,0,1,1.61-.53A2.89,2.89,0,0,1,24.16,14a3.13,3.13,0,0,1,.71,2.27,2.4,2.4,0,0,1-.09.48l.86,1a4.29,4.29,0,0,0,.4-1.42,4.24,4.24,0,0,0-1-3.11,4,4,0,0,0-3.55-1.53,4.43,4.43,0,0,0-2,.67l-.13-.14L19.15,12a4.77,4.77,0,0,0-1.27-1,4.44,4.44,0,0,0-1.29-.53c-.16,0-.31-.07-.47-.09a4.45,4.45,0,0,0-3.29.71,4.84,4.84,0,0,0-2.13-.85l-.4,0H9.86A4.74,4.74,0,0,0,7,11.3a4.81,4.81,0,0,0-1.6,2.63l-.06.3a3.6,3.6,0,0,0,0,.36A4.75,4.75,0,0,0,5.72,17a4.37,4.37,0,0,0-1.28,3.19c0,.13,0,.27,0,.4a4.53,4.53,0,0,0,1.06,2.7A4.61,4.61,0,0,0,8.6,24.92l.44,0a4.55,4.55,0,0,0,1.27-.2l-.84-1A3.23,3.23,0,0,1,8.71,23.76Z"/><path d="M17.6,21.67l3,3.57.9-.75-1.8-2.15a7.45,7.45,0,0,1-1.66-.8Z"/><path d="M37.92,34.45A11.8,11.8,0,0,1,36.57,33a22.14,22.14,0,0,1-2.66-4.68,10.14,10.14,0,0,0-1.44-2.33L27.3,19.75a5.92,5.92,0,0,1-.76.91l5,6a8.92,8.92,0,0,1,1.28,2.07,23.07,23.07,0,0,0,2.78,4.89,14.31,14.31,0,0,0,1.49,1.66,1,1,0,0,1,.2,1.09,11.36,11.36,0,0,1-3.48,4.35c-2.39,2-4.12,2.39-5,2.45a1,1,0,0,1-.88-.36,8.35,8.35,0,0,0-1.46-1.28L26,41.18a7.63,7.63,0,0,0-3.26-1.34,11.88,11.88,0,0,1-3.09-1.69A12.2,12.2,0,0,0,17,36.65l-6.41-1.1a1.6,1.6,0,0,1-1.07-.63,1.31,1.31,0,0,1-.1-1.05c.18-.75.67-1.06,1.62-1.06h0l8,.54-6-7.15a6.22,6.22,0,0,1-1,.59L16.37,32l-5.3-.35h0a2.52,2.52,0,0,0-2.79,1.94,2.41,2.41,0,0,0,.26,2,2.75,2.75,0,0,0,1.84,1.15l6.33,1.08A11.87,11.87,0,0,1,19,39.12,12.91,12.91,0,0,0,22.44,41a6.49,6.49,0,0,1,2.89,1.16l.58.4a7.11,7.11,0,0,1,1.24,1.09,2.11,2.11,0,0,0,1.64.75H29c1.18-.09,3.1-.63,5.6-2.72a12.51,12.51,0,0,0,3.83-4.82A2.18,2.18,0,0,0,37.92,34.45Z"/><path d="M17,19.22a5.47,5.47,0,0,1-.58.15,4,4,0,0,1-.7.06l1,1.26a7,7,0,0,0,1.07-.35l.11-.06-.9-1.08Z"/><path d="M25,18.78l.82,1a5.53,5.53,0,0,0,.73-1l-.88-1A4.28,4.28,0,0,1,25,18.78Z"/><path d="M21.31,20.2l1.07,1.27a5.24,5.24,0,0,0,1.28-.28l-.9-1.08A4.4,4.4,0,0,1,21.31,20.2Z"/><path d="M17.67,27.66l.9-.75L15.5,23.23a7.25,7.25,0,0,1-.61,1.09Z"/><path d="M10.31,24.74l.93,1.12a6,6,0,0,0,1-.57l-.87-1.05A4.25,4.25,0,0,1,10.31,24.74Z"/><path d="M23.49,22.81l.66-.55a5.47,5.47,0,0,1-.9.26Z"/><path d="M10,14.56a1.37,1.37,0,0,1,.95-.3,1.35,1.35,0,0,1,.9.47l2.83,3.4a3.39,3.39,0,0,0,1,.14,3.19,3.19,0,0,0,.54-.05h0L14.37,16a1.32,1.32,0,0,1,.17-1.85,1.3,1.3,0,0,1,1.84.17l2.08,2.49.18-.19.38.76a2.87,2.87,0,0,0,.28.43l.25.31a3.22,3.22,0,0,0,.95.69,3.07,3.07,0,0,0,1.36.25L20.5,17.4a1.43,1.43,0,0,1-.38-.92,1.14,1.14,0,0,1,.48-.85,1.24,1.24,0,0,1,1.86.13l1.76,2.12a3.13,3.13,0,0,0,.56-1.16L23.35,15a2.4,2.4,0,0,0-3.5-.29,2.58,2.58,0,0,0-.75,1l-1.82-2.18a2.49,2.49,0,0,0-1.68-.88,2.44,2.44,0,0,0-1.81.57A2.54,2.54,0,0,0,13,14.35L12.71,14A2.47,2.47,0,0,0,11,13.1a2.44,2.44,0,0,0-1.81.57,2.47,2.47,0,0,0-.31,3.49l.15.18a2.47,2.47,0,0,0-2.12,2.24,2.44,2.44,0,0,0,.57,1.8l2,2.35a3.15,3.15,0,0,0,1.19-.39L8.41,20.63a1.25,1.25,0,0,1-.3-.95,1.28,1.28,0,0,1,.46-.89,1.31,1.31,0,0,1,1.8.12l1.9,2.27s0,0,0-.06a3.37,3.37,0,0,0-.18-2L9.81,16.41A1.31,1.31,0,0,1,10,14.56Z"/><path d="M13.5,20.84a3,3,0,0,1-.07.51,4.12,4.12,0,0,1-.29.88l1,1.16a7,7,0,0,0,.54-1.18Z"/><path d="M12.29,25.29a6,6,0,0,1-1,.57l.78.93a6.22,6.22,0,0,0,1-.59Z"/><path d="M23.25,22.52a5.47,5.47,0,0,0,.9-.26l.24-.2-.73-.87a5.24,5.24,0,0,1-1.28.28Z"/><path d="M17.86,20.34a7,7,0,0,1-1.07.35l.81,1,.42-.13a7.45,7.45,0,0,0,1.66.8L18,20.28Z"/><path d="M14.11,23.39l.78.93a7.25,7.25,0,0,0,.61-1.09l-.85-1A7,7,0,0,1,14.11,23.39Z"/><path d="M25.79,19.77l.75.89a5.92,5.92,0,0,0,.76-.91l-.78-.94A5.53,5.53,0,0,1,25.79,19.77Z"/><path d="M15.69,18.27a3.39,3.39,0,0,1-1-.14l1.09,1.3a4,4,0,0,0,.7-.06,5.47,5.47,0,0,0,.58-.15l.05,0-.82-1h0A3.19,3.19,0,0,1,15.69,18.27Z"/><path d="M18.64,16.59l-.18.19.84,1a2.87,2.87,0,0,1-.28-.43Z"/><path d="M20.5,18.78a3.22,3.22,0,0,1-.95-.69l1.76,2.11a4.4,4.4,0,0,0,1.45-.09L21.86,19A3.07,3.07,0,0,1,20.5,18.78Z"/><path d="M9.47,23.73l.84,1a4.25,4.25,0,0,0,1.11-.5l-.76-.9A3.15,3.15,0,0,1,9.47,23.73Z"/><path d="M13.5,20.84l-1.4-1.68a3.37,3.37,0,0,1,.18,2s0,0,0,.06l.87,1.05a4.12,4.12,0,0,0,.29-.88A3,3,0,0,0,13.5,20.84Z"/><path d="M24.22,17.88l.75.9a4.28,4.28,0,0,0,.67-1l-.86-1A3.13,3.13,0,0,1,24.22,17.88Z"/></svg>