<svg id="Слой_1" data-name="Слой 1" xmlns="http://www.w3.org/2000/svg" viewBox="0 0 40 58"><defs><style>.cls-1{fill:#1d1d1b;}</style></defs><title>Иконки утп мобильные</title><path class="cls-1" d="M8.27,40.48a.71.71,0,0,1-.71-.71V7.33a.71.71,0,0,1,.71-.71.7.7,0,0,1,.7.71V39.77A.7.7,0,0,1,8.27,40.48Z"/><path class="cls-1" d="M31.86,40.48a.71.71,0,0,1-.71-.71V7.33a.71.71,0,0,1,.71-.71.7.7,0,0,1,.7.71V39.77A.7.7,0,0,1,31.86,40.48Z"/><path class="cls-1" d="M18,23.36H16.52v-.25a.36.36,0,0,0-.36-.36h-.87a.36.36,0,0,0-.36.36v2.74a.37.37,0,0,0,.36.38h.87a.37.37,0,0,0,.36-.38V24.16h-.45a.38.38,0,0,1-.21-.07.38.38,0,0,0,.21.07H18a.4.4,0,0,0,.4-.4A.41.41,0,0,0,18,23.36Z"/><path class="cls-1" d="M12.25,36.73a.7.7,0,0,1-.7-.71V12.61a.7.7,0,0,1,.7-.71.71.71,0,0,1,.71.71V36A.71.71,0,0,1,12.25,36.73Z"/><path class="cls-1" d="M27.87,36.73a.7.7,0,0,1-.7-.71V12.61a.7.7,0,0,1,.7-.71.71.71,0,0,1,.71.71V36A.71.71,0,0,1,27.87,36.73Z"/><path class="cls-1" d="M29.91,5.67H10.22A.7.7,0,0,1,9.51,5a.71.71,0,0,1,.71-.71H29.91a.7.7,0,0,1,.7.71A.7.7,0,0,1,29.91,5.67Z"/><path class="cls-1" d="M27.17,9.83H13a.71.71,0,0,1-.71-.71.7.7,0,0,1,.71-.7H27.17a.7.7,0,0,1,.7.7A.7.7,0,0,1,27.17,9.83Z"/><path class="cls-1" d="M27.17,39.63H13a.7.7,0,0,1-.71-.7.71.71,0,0,1,.71-.71H27.17a.7.7,0,0,1,.7.71A.7.7,0,0,1,27.17,39.63Z"/></svg>