<svg id="Слой_1" data-name="Слой 1" xmlns="http://www.w3.org/2000/svg" viewBox="0 0 60 80"><title>Иконки утп</title><path d="M7.49,64.2a1.31,1.31,0,0,0,.35.82,1.18,1.18,0,0,0,.82.25,1,1,0,0,0,.88-.42,2.11,2.11,0,0,0,.34-1.2H8V62.9H9.88a2,2,0,0,0-.36-1.21,1.08,1.08,0,0,0-.91-.42,1.1,1.1,0,0,0-.78.26,1.3,1.3,0,0,0-.34.83H6.57A2,2,0,0,1,7.19,61a2.05,2.05,0,0,1,1.42-.48,2.2,2.2,0,0,1,1.16.3,2,2,0,0,1,.76.88A3.22,3.22,0,0,1,10.81,63v.44a3.3,3.3,0,0,1-.26,1.34,2,2,0,0,1-.76.88,2.1,2.1,0,0,1-1.13.3,2.14,2.14,0,0,1-1.46-.47,1.89,1.89,0,0,1-.63-1.33Z"/><path d="M13,64.36h-.45v1.57h-.89V62h.89v1.58H13L14.06,62h1.09l-1.43,1.9,1.56,2.06H14.12Z"/><path d="M15.39,63.91a2.31,2.31,0,0,1,.23-1,1.6,1.6,0,0,1,.65-.71,1.79,1.79,0,0,1,1-.25,1.74,1.74,0,0,1,1.3.51,2.07,2.07,0,0,1,.54,1.37V64A2.38,2.38,0,0,1,18.85,65a1.66,1.66,0,0,1-.65.71,1.82,1.82,0,0,1-1,.25,1.72,1.72,0,0,1-1.34-.55,2.18,2.18,0,0,1-.5-1.49Zm.89.08a1.59,1.59,0,0,0,.25,1,.81.81,0,0,0,.7.34.79.79,0,0,0,.7-.35,1.72,1.72,0,0,0,.26-1,1.6,1.6,0,0,0-.26-.95.84.84,0,0,0-.7-.35.82.82,0,0,0-.7.35A1.72,1.72,0,0,0,16.28,64Z"/><path d="M23.13,62v4h-.89V62.69H21.12l-.07,1.38a2.9,2.9,0,0,1-.38,1.43,1.1,1.1,0,0,1-1,.43h-.28v-.74l.18,0a.51.51,0,0,0,.43-.35,3.67,3.67,0,0,0,.17-1.16L20.28,62Z"/><path d="M23.91,63.91a2.45,2.45,0,0,1,.23-1,1.66,1.66,0,0,1,.65-.71,1.81,1.81,0,0,1,1-.25,1.72,1.72,0,0,1,1.3.51,2,2,0,0,1,.54,1.37V64A2.38,2.38,0,0,1,27.37,65a1.64,1.64,0,0,1-.64.71,1.82,1.82,0,0,1-1,.25,1.71,1.71,0,0,1-1.34-.55A2.14,2.14,0,0,1,23.91,64Zm.89.08a1.59,1.59,0,0,0,.26,1,.88.88,0,0,0,1.4,0,1.72,1.72,0,0,0,.25-1,1.53,1.53,0,0,0-.26-.95.82.82,0,0,0-.7-.35.79.79,0,0,0-.69.35A1.72,1.72,0,0,0,24.8,64Z"/><path d="M31,62.69H29.27v3.24h-.89V62H31Z"/><path d="M34,62h.88v4H34V63.29l-1.56,2.64h-.88V62h.88v2.64Z"/><path d="M39,65.93h-.89V64.61a3.47,3.47,0,0,1-.73.08,1.79,1.79,0,0,1-1.24-.39,1.42,1.42,0,0,1-.43-1.12V62h.89v1.22a.8.8,0,0,0,.19.61.85.85,0,0,0,.59.18,3.71,3.71,0,0,0,.73-.08V62H39Z"/><path d="M43.28,65.93h-.89v-1.6H40.85v1.6H40V62h.89v1.65h1.54V62h.89Z"/><path d="M45.18,63.23h.87a2,2,0,0,1,.85.17,1.17,1.17,0,0,1,.55.47,1.28,1.28,0,0,1,.19.71,1.23,1.23,0,0,1-.43,1,1.74,1.74,0,0,1-1.15.37H44.29V62h.89Zm0,.71v1.28h.87a.73.73,0,0,0,.51-.16.58.58,0,0,0,.19-.47.63.63,0,0,0-.18-.47.72.72,0,0,0-.5-.18Zm4,2H48.3V62h.89Z"/><path d="M52,66a1.82,1.82,0,0,1-1.37-.53,1.93,1.93,0,0,1-.53-1.42v-.11a2.43,2.43,0,0,1,.23-1.06,1.75,1.75,0,0,1,.65-.72,1.62,1.62,0,0,1,.92-.26,1.57,1.57,0,0,1,1.25.51,2.21,2.21,0,0,1,.44,1.46v.36H51a1.22,1.22,0,0,0,.33.78,1,1,0,0,0,.72.28,1.21,1.21,0,0,0,1-.49l.48.46a1.64,1.64,0,0,1-.64.55A2,2,0,0,1,52,66Zm-.11-3.39a.76.76,0,0,0-.59.26,1.31,1.31,0,0,0-.28.71h1.69v-.07a1.07,1.07,0,0,0-.24-.67A.75.75,0,0,0,51.89,62.61Z"/><path d="M12.78,71.84,14,69h1.11v4h-.89V70.31l-1.09,2.62h-.6l-1.1-2.64v2.64h-.89V69h1.12Z"/><path d="M18.43,72.93a1.27,1.27,0,0,1-.11-.37,1.36,1.36,0,0,1-1,.44,1.38,1.38,0,0,1-1-.34,1.07,1.07,0,0,1-.38-.84,1.14,1.14,0,0,1,.47-1,2.28,2.28,0,0,1,1.35-.34h.54v-.26a.63.63,0,0,0-.69-.68.8.8,0,0,0-.5.15.49.49,0,0,0-.19.39H16a1,1,0,0,1,.21-.61,1.39,1.39,0,0,1,.59-.44,2,2,0,0,1,.83-.16,1.64,1.64,0,0,1,1.11.35,1.2,1.2,0,0,1,.42,1V72a2,2,0,0,0,.15.85v.06Zm-1-.64a1,1,0,0,0,.49-.13.77.77,0,0,0,.35-.34v-.75h-.48a1.37,1.37,0,0,0-.74.17.58.58,0,0,0-.25.49.53.53,0,0,0,.17.41A.69.69,0,0,0,17.45,72.29Z"/><path d="M23.18,69.68H21.89v3.25H21V69.68H19.73V69h3.45Z"/><path d="M25.28,73a1.81,1.81,0,0,1-1.37-.53,1.93,1.93,0,0,1-.53-1.42v-.11a2.43,2.43,0,0,1,.23-1.06,1.73,1.73,0,0,1,.64-.72,1.68,1.68,0,0,1,.93-.26,1.58,1.58,0,0,1,1.25.51,2.21,2.21,0,0,1,.44,1.46v.36H24.28a1.12,1.12,0,0,0,.33.78,1,1,0,0,0,.72.28,1.21,1.21,0,0,0,1-.49l.48.46a1.71,1.71,0,0,1-.64.55A2,2,0,0,1,25.28,73Zm-.11-3.39a.76.76,0,0,0-.59.26,1.32,1.32,0,0,0-.29.71H26v-.07a1.07,1.07,0,0,0-.24-.67A.75.75,0,0,0,25.17,69.61Z"/><path d="M31,71a2.37,2.37,0,0,1-.42,1.47,1.46,1.46,0,0,1-2.16.12v1.88h-.89V69h.82l0,.4a1.3,1.3,0,0,1,1.07-.47,1.37,1.37,0,0,1,1.14.54,2.45,2.45,0,0,1,.41,1.5Zm-.89-.08a1.72,1.72,0,0,0-.23-.94.78.78,0,0,0-.68-.34.8.8,0,0,0-.78.44v1.76a.82.82,0,0,0,.79.46A.76.76,0,0,0,29.9,72,1.82,1.82,0,0,0,30.14,70.91Z"/><path d="M34.25,69h.89v4h-.89V70.29L32.7,72.93h-.89V69h.89v2.64Z"/><path d="M38.45,72.93a1.82,1.82,0,0,1-.1-.37,1.5,1.5,0,0,1-2,.1,1.07,1.07,0,0,1-.38-.84,1.14,1.14,0,0,1,.47-1,2.26,2.26,0,0,1,1.35-.34h.54v-.26a.69.69,0,0,0-.17-.49.65.65,0,0,0-.52-.19.78.78,0,0,0-.5.15.5.5,0,0,0-.2.39H36a1,1,0,0,1,.22-.61,1.33,1.33,0,0,1,.59-.44,2,2,0,0,1,.83-.16,1.64,1.64,0,0,1,1.11.35,1.23,1.23,0,0,1,.42,1V72a2,2,0,0,0,.15.85v.06Zm-1-.64a1,1,0,0,0,.49-.13.82.82,0,0,0,.35-.34v-.75h-.48a1.35,1.35,0,0,0-.74.17.56.56,0,0,0-.25.49.53.53,0,0,0,.17.41A.67.67,0,0,0,37.48,72.29Z"/><path d="M43.51,69v4h-.89V69.69H41.5l-.07,1.38A2.89,2.89,0,0,1,41,72.5a1.07,1.07,0,0,1-.95.43h-.28v-.74l.18,0a.51.51,0,0,0,.43-.35,4,4,0,0,0,.17-1.16L40.66,69Z"/><path d="M45.42,70.23h.87a2,2,0,0,1,.85.17,1.27,1.27,0,0,1,.55.47,1.37,1.37,0,0,1,.19.71,1.26,1.26,0,0,1-.43,1,1.76,1.76,0,0,1-1.15.37H44.53V69h.89Zm0,.71v1.28h.86a.77.77,0,0,0,.52-.16.62.62,0,0,0,.19-.47.6.6,0,0,0-.19-.47.72.72,0,0,0-.5-.18Zm4,2h-.89V69h.89Z"/><path d="M49.16,30.55a45.88,45.88,0,0,0-4.95-.62c0-.26,0-.52,0-.77A14.47,14.47,0,1,0,16.11,34a29.84,29.84,0,0,0-3.27.43l-1.05.2.46,1c.14.3,3.47,7.28,7.65,9.39a9.48,9.48,0,0,0,4.2,1.15h0a5,5,0,0,0,4.42-2.43A6.62,6.62,0,0,0,33.75,46a12.61,12.61,0,0,0,5.62-1.55C45,41.62,49.56,32.12,49.75,31.72l.46-1Zm-7.48-6.1A11.8,11.8,0,0,0,39.8,23.2,17.54,17.54,0,0,0,36.92,22a16.17,16.17,0,0,0-1.21-2.87,11.69,11.69,0,0,0-1.25-1.89,12.91,12.91,0,0,1,7.22,7.22Zm.79,3.88H38a24.76,24.76,0,0,0-.52-4.39c2.68,1,4.57,2.62,5,4.39ZM30.59,16.45c1.76.45,3.33,2.34,4.38,5A24.64,24.64,0,0,0,30.59,21Zm0,6.16a22.22,22.22,0,0,1,5,.73,22.13,22.13,0,0,1,.73,5H30.59Zm0,7.37h5.72c0,.08,0,.15,0,.22a13.62,13.62,0,0,0-3.57,1.14,17.29,17.29,0,0,0-2.14,1.28ZM28.93,16.45V21a24.64,24.64,0,0,0-4.38.53c1.05-2.69,2.62-4.58,4.38-5Zm0,6.16v5.72H23.21a22.13,22.13,0,0,1,.73-5,22.22,22.22,0,0,1,5-.73Zm-3.88-5.38a12.36,12.36,0,0,0-1.24,1.89A16.17,16.17,0,0,0,22.6,22a17.54,17.54,0,0,0-2.88,1.21,11.8,11.8,0,0,0-1.88,1.25,12.92,12.92,0,0,1,7.21-7.22Zm-3,6.71a23.86,23.86,0,0,0-.52,4.39H17.05c.46-1.77,2.35-3.34,5-4.39Zm-.52,6A24.73,24.73,0,0,0,22,34.09c-.28-.05-.57-.09-.88-.12-2.18-1-3.69-2.44-4.09-4Zm5.15,13.35a3.34,3.34,0,0,1-2.61,1.1h0a7.72,7.72,0,0,1-3.45-1c-2.81-1.42-5.35-5.68-6.4-7.63a32.42,32.42,0,0,1,4.48-.34,12.41,12.41,0,0,1,5.46,1,8.08,8.08,0,0,1,2.6,1.91A7,7,0,0,0,27.48,42L19.12,38.1Zm-1.09-8L24.93,35a8.83,8.83,0,0,0-1.11-.46A22.94,22.94,0,0,1,23.21,30h5.72V34a8.66,8.66,0,0,0-1.23,1.6,20,20,0,0,1-2.08-.28Zm13,7.65a11.06,11.06,0,0,1-4.88,1.37,4.89,4.89,0,0,1-4-1.78l11.48-7.35L29.05,41.46h0c-1.63-3.24,0-6.38,4.44-8.64a17.54,17.54,0,0,1,7.64-1.35,46.1,46.1,0,0,1,6.64.53c-1.3,2.48-5,8.91-9.13,11Zm0,0"/></svg>