<svg id="Слой_1" data-name="Слой 1" xmlns="http://www.w3.org/2000/svg" viewBox="0 0 40 58"><title>Иконки утп мобильные</title><path d="M39.23,24.85a42.49,42.49,0,0,0-5-.63c0-.26,0-.51,0-.77a14.47,14.47,0,1,0-28.12,4.8,29.84,29.84,0,0,0-3.27.43l-1,.21.45,1c.14.29,3.48,7.27,7.66,9.38a9.41,9.41,0,0,0,4.19,1.15h0A5,5,0,0,0,18.59,38a6.55,6.55,0,0,0,5.22,2.36,12.72,12.72,0,0,0,5.62-1.54C35.08,35.91,39.62,26.41,39.82,26l.45-1Zm-7.49-6.11a11.78,11.78,0,0,0-1.88-1.24A16,16,0,0,0,27,16.29a16,16,0,0,0-1.21-2.88,11.78,11.78,0,0,0-1.24-1.88,12.87,12.87,0,0,1,7.21,7.21Zm.79,3.88H28a23.75,23.75,0,0,0-.52-4.38c2.68,1,4.58,2.62,5,4.38ZM20.65,10.74c1.77.46,3.34,2.35,4.39,5a23.86,23.86,0,0,0-4.39-.52Zm0,6.16a22.13,22.13,0,0,1,5,.73,22.13,22.13,0,0,1,.73,5H20.65Zm0,7.38h5.72c0,.07,0,.14,0,.21a13.42,13.42,0,0,0-3.56,1.14,16.73,16.73,0,0,0-2.15,1.28ZM19,10.74v4.51a23.86,23.86,0,0,0-4.39.52c1.05-2.68,2.62-4.57,4.39-5Zm0,6.16v5.72H13.27a22.71,22.71,0,0,1,.73-5,22.31,22.31,0,0,1,5-.73Zm-3.88-5.37a11.16,11.16,0,0,0-1.25,1.88,16.71,16.71,0,0,0-1.21,2.88A16.27,16.27,0,0,0,9.78,17.5,12.25,12.25,0,0,0,7.9,18.74a12.89,12.89,0,0,1,7.22-7.21Zm-3,6.7a24.87,24.87,0,0,0-.53,4.39H7.11c.46-1.76,2.35-3.34,5-4.39Zm-.53,6.05a23.71,23.71,0,0,0,.47,4.1c-.29-.05-.58-.09-.88-.12-2.19-1-3.7-2.43-4.1-4Zm5.15,13.34a3.33,3.33,0,0,1-2.61,1.11h0a7.92,7.92,0,0,1-3.45-1c-2.81-1.42-5.35-5.69-6.4-7.63a32.59,32.59,0,0,1,4.49-.34,12.41,12.41,0,0,1,5.45,1,8.41,8.41,0,0,1,2.61,1.91,6.91,6.91,0,0,0,.68,3.65L9.18,32.39Zm-1.08-8c-.22-.13-.45-.26-.69-.38a8,8,0,0,0-1.11-.45,22.4,22.4,0,0,1-.62-4.54H19v4a7.87,7.87,0,0,0-1.23,1.6c-.72-.06-1.41-.15-2.08-.27Zm13,7.64a11.06,11.06,0,0,1-4.88,1.37,4.91,4.91,0,0,1-4-1.78l11.48-7.35L19.11,35.76v0c-1.63-3.24,0-6.38,4.44-8.63a17.38,17.38,0,0,1,7.64-1.36,44.31,44.31,0,0,1,6.64.54c-1.3,2.47-5,8.91-9.13,11Zm0,0"/></svg>