<svg id="Слой_1" data-name="Слой 1" xmlns="http://www.w3.org/2000/svg" viewBox="0 0 40 58"><title>Иконки утп мобильные</title><path d="M20,42l9.61-9.58c-.54,0-1,0-1.4,0a.94.94,0,0,1-1-.92.92.92,0,0,1,1-.93c1.52,0,3.05,0,4.69,0v2.16c0,.85,0,1.7,0,2.54a.89.89,0,0,1-1,1,.87.87,0,0,1-.89-1c0-.44,0-.88,0-1.39l-8.64,8.64H35.54c.74,0,1.13.33,1.12.89s-.41.91-1.1.92H4.69c-.82,0-1.2-.28-1.2-.86s.41-1,1.21-1l12.08,0h.91l.16-.21c-.47-.41-1-.79-1.4-1.23q-4.18-4.16-8.35-8.33c-.2-.2-.4-.39-.59-.61a.88.88,0,0,1,0-1.32.86.86,0,0,1,1.27,0c.81.78,1.61,1.59,2.41,2.38l8.39,8.4C19.75,41.77,19.89,41.89,20,42Z"/><path d="M20.18,7.21A9.55,9.55,0,0,1,29.63,17.3a9.57,9.57,0,0,1-19.12-.92A9.5,9.5,0,0,1,20.18,7.21Zm8,9.57A8.06,8.06,0,0,0,19.7,8.65a8.13,8.13,0,1,0,8.47,8.13Z"/><path d="M17.77,27.72h4.62l-2.32,5.64Z"/><path d="M10.57,23.15l3.12,3.1L8.34,28.5Z"/><path d="M3.46,16.77l5.65-2.33v4.62Z"/><path d="M29.61,23.26l2.21,5.24-5.29-2.21Z"/><path d="M31,14.46l5.64,2.29L31,19.08Z"/><path d="M20.07.16l2.3,5.64H17.76Z"/><path d="M26.54,7.23,31.81,5l-2.23,5.32Z"/><path d="M8.37,5.12a3.86,3.86,0,0,1,.4.09l4.8,2-3,3.07Z"/><path d="M10.41,11.42l-.94,2.12L7,11.42Z"/><path d="M33.15,11.41l-2.41,2.24-1-2.24Z"/><path d="M29.7,22.12l1-2.13,2.36,2.13Z"/><path d="M14.68,29.58V26.42l2.18.95-2,2.33Z"/><path d="M25.44,29.68l-2.33-2.22,2.33-1.06Z"/><path d="M25.48,7.12,23.12,6.06l2.36-2.24Z"/><path d="M17,6.07l-2.32,1V3.87Z"/><path d="M7.4,21.91l2-2.13,1,2.32H7.47Z"/><path d="M17.94,13.63a6,6,0,0,1,.63-.07h.8a2.78,2.78,0,0,1,.08.51c0,1.18,0,2.36,0,3.53a2,2,0,0,1-1.19,2.14,2.83,2.83,0,0,1-2.94-.29,2.16,2.16,0,0,1-.67-1.4c-.09-1.46,0-2.92,0-4.43h1.49c0,1.38,0,2.73,0,4.09,0,.53.12,1,.76,1.08s1.06-.24,1.07-1.05C18,16.39,17.94,15.05,17.94,13.63Z"/><path d="M25.52,13.64c-.6,2-1.19,3.95-1.81,5.9a.63.63,0,0,1-.46.29c-1.41.13-1.4.12-1.78-1.26-.23-.81-.49-1.62-.73-2.43s-.47-1.62-.74-2.55a9.2,9.2,0,0,1,1.3,0c.15,0,.33.29.38.47.36,1.31.69,2.62,1.09,4.15.35-1.29.64-2.38.94-3.47C24.06,13.52,24.06,13.52,25.52,13.64Z"/></svg>