<svg id="Слой_1" data-name="Слой 1" xmlns="http://www.w3.org/2000/svg" viewBox="0 0 40 58"><defs><style>.cls-1{fill:#ed700e;}.cls-1,.cls-2{stroke:#ed700e;stroke-miterlimit:10;stroke-width:0.75px;}.cls-2,.cls-3{fill:none;}.cls-4{fill:#1d1d1b;}</style></defs><title>Иконки утп мобильные</title><polygon class="cls-1" points="6.35 50.01 7.26 51.86 9.3 52.16 7.83 53.6 8.18 55.63 6.35 54.67 4.53 55.63 4.88 53.6 3.4 52.16 5.44 51.86 6.35 50.01"/><polygon class="cls-2" points="15.63 50.01 16.54 51.86 18.59 52.16 17.11 53.6 17.46 55.63 15.63 54.67 13.81 55.63 14.15 53.6 12.68 52.16 14.72 51.86 15.63 50.01"/><polygon class="cls-2" points="24.91 50.01 25.82 51.86 27.86 52.16 26.39 53.6 26.74 55.63 24.91 54.67 23.09 55.63 23.43 53.6 21.96 52.16 24 51.86 24.91 50.01"/><polygon class="cls-2" points="34.19 50.01 35.1 51.86 37.15 52.16 35.67 53.6 36.02 55.63 34.19 54.67 32.37 55.63 32.72 53.6 31.24 52.16 33.28 51.86 34.19 50.01"/><path class="cls-3" d="M26.82,17l-1,4.29-10-2.38,1-4.29,1.39.33.42-1.78-.14,0L6.7,20.53,21.28,29.6l14.58-9.07L26,14.38l-.56,2.32ZM13.27,19.88l6,1.06L13.8,22.79Zm7,5.95-1.77-.37,2-3.18Zm5.44,0L21.79,21.5l5.77,2.06Z"/><polygon class="cls-4" points="13.27 19.88 13.8 22.79 19.31 20.94 13.27 19.88"/><polygon class="cls-4" points="25.67 25.83 27.56 23.55 21.79 21.5 25.67 25.83"/><polygon class="cls-4" points="20.23 25.83 20.44 22.28 18.46 25.46 20.23 25.83"/><path class="cls-4" d="M4.2,20.53a.88.88,0,0,0,.42.73L20.83,31.35a.87.87,0,0,0,.45.13.93.93,0,0,0,.45-.13L37.94,21.26a.87.87,0,0,0,.41-.73.89.89,0,0,0-.41-.74L26.41,12.62,26,14.38l9.87,6.15L21.28,29.6,6.7,20.53l11.82-7.37-2.36-.56L4.61,19.79A.87.87,0,0,0,4.2,20.53Z"/><path class="cls-4" d="M37.48,25.43a.86.86,0,0,0-.61.25.87.87,0,0,0,0,1.22.86.86,0,0,0,.61.25.85.85,0,0,0,.61-.25.85.85,0,0,0,0-1.22A.85.85,0,0,0,37.48,25.43Z"/><path class="cls-4" d="M34.33,27.25a.85.85,0,0,0-.27,1.18.86.86,0,0,0,.73.41.9.9,0,0,0,.45-.13.87.87,0,0,0,.27-1.19A.85.85,0,0,0,34.33,27.25Z"/><path class="cls-4" d="M26.23,32.29A.84.84,0,0,0,26,33.47a.86.86,0,0,0,.73.41.84.84,0,0,0,.46-.13.86.86,0,0,0-.91-1.46Z"/><path class="cls-4" d="M23.52,34a.87.87,0,0,0-.27,1.19.85.85,0,0,0,.73.4.79.79,0,0,0,.45-.13A.86.86,0,0,0,23.52,34Z"/><path class="cls-4" d="M28.93,30.61a.86.86,0,0,0-.28,1.18.84.84,0,0,0,.73.41.79.79,0,0,0,.45-.13.86.86,0,0,0,.28-1.18A.85.85,0,0,0,28.93,30.61Z"/><path class="cls-4" d="M31.63,28.93a.85.85,0,0,0-.28,1.18.88.88,0,0,0,.73.41.84.84,0,0,0,.46-.13.86.86,0,0,0-.91-1.46Z"/><path class="cls-4" d="M20.67,35.77A.86.86,0,0,0,21.89,37a.87.87,0,0,0,0-1.22.87.87,0,0,0-1.22,0Z"/><path class="cls-4" d="M17.84,34.24a.87.87,0,0,0,.27,1.19,1,1,0,0,0,.46.13.88.88,0,0,0,.73-.41.86.86,0,1,0-1.46-.91Z"/><path class="cls-4" d="M7,27.52a.86.86,0,0,0,.27,1.18.86.86,0,0,0,1.19-.28.85.85,0,0,0-.28-1.18A.86.86,0,0,0,7,27.52Z"/><path class="cls-4" d="M15.14,32.57a.86.86,0,0,0,.28,1.18.85.85,0,0,0,1.18-.28.86.86,0,1,0-1.46-.9Z"/><path class="cls-4" d="M12.44,30.88a.86.86,0,0,0,.27,1.18.89.89,0,0,0,.46.13.86.86,0,0,0,.73-.41.85.85,0,0,0-.28-1.18A.87.87,0,0,0,12.44,30.88Z"/><path class="cls-4" d="M9.74,29.2A.87.87,0,0,0,10,30.39a.93.93,0,0,0,.45.13.87.87,0,0,0,.46-1.6A.87.87,0,0,0,9.74,29.2Z"/><path class="cls-4" d="M5.07,27.15a.85.85,0,1,0-.61-.25A.82.82,0,0,0,5.07,27.15Z"/><path class="cls-4" d="M37,31.33,21.28,41.14,5.52,31.33a.85.85,0,0,0-1.18.27.86.86,0,0,0,.27,1.18L20.82,42.87a.84.84,0,0,0,.9,0L37.93,32.78a.86.86,0,0,0,.27-1.18A.83.83,0,0,0,37,31.33Z"/><path class="cls-4" d="M1.58,7.84,2,5.93l17.38,4.14-.14.6a14.83,14.83,0,0,0,1.64-1.5l.17-.71,4.76,1.13-.55,2.33,1.12.7.65-2.74,1.38.33,1-4.28-10-2.38-1,4.29,1.38.33-.16.68-18-4.29a.67.67,0,0,0-.48.08A.65.65,0,0,0,1,5L.22,8.16a.6.6,0,0,0,.07.47.61.61,0,0,0,.39.28L16.16,12.6l1.49-.93Z"/><path class="cls-4" d="M24.22,16.41l-4.77-1.14.43-1.79-1.36-.32.14,0L18.24,15l-1.39-.33-1,4.29,10,2.38,1-4.29-1.39-.33L26,14.38l-1.12-.7Z"/><polygon class="cls-4" points="24.87 13.68 25.99 14.38 26.41 12.62 25.29 11.92 24.87 13.68"/><path class="cls-4" d="M20.78,9.7l-1.51,1L19,12l-1.3-.31-1.49.93,2.5.6S20.92,9.62,20.78,9.7Z"/><polygon class="cls-4" points="19.61 15.61 18.49 14.92 19.76 9.61 20.97 9.91 19.61 15.61"/></svg>