<svg id="Слой_1" data-name="Слой 1" xmlns="http://www.w3.org/2000/svg" viewBox="0 0 40 58"><defs><style>.cls-1{fill:#1d1d1b;}.cls-2{fill:#ed700e;stroke:#ed700e;stroke-miterlimit:10;stroke-width:0.75px;}</style></defs><title>Иконки утп мобильные</title><path class="cls-1" d="M28.47,21.93,37,8.47a.76.76,0,0,0-.24-1L26.56.94A.81.81,0,0,0,26,.84a.83.83,0,0,0-.47.33L13.24,20.54a.75.75,0,0,0,.23,1l5.86,3.72a.75.75,0,0,0,.57.09l7-1.55a3.3,3.3,0,0,0,.31-.23Zm-2.08.47-6.52,1.46-5-3.15,4-6.24,9,5.68Z"/><polygon class="cls-1" points="14.68 26.5 15.95 29.22 20.87 25.98 14.68 26.5"/><polygon class="cls-1" points="19.84 28.23 21.37 29.23 22.89 25.97 19.84 28.23"/><path class="cls-1" d="M2.75,24.13,19.19,34.36a.88.88,0,0,0,.92,0L36.54,24.13a.86.86,0,0,0,0-1.48L20.11,12.41a.91.91,0,0,0-.93,0L2.75,22.65a.86.86,0,0,0-.42.74.9.9,0,0,0,.42.74Zm16.9-9.95,14.78,9.21-14.78,9.2L4.86,23.39Zm0,0"/><path class="cls-1" d="M36.08,28.36a.85.85,0,0,0-.61.26.86.86,0,0,0,0,1.23.85.85,0,0,0,.61.26.88.88,0,0,0,0-1.75Zm0,0"/><path class="cls-1" d="M32.88,30.2a.87.87,0,0,0-.27,1.2.89.89,0,0,0,.74.42.86.86,0,0,0,.46-.14.87.87,0,0,0-.93-1.48Zm0,0"/><path class="cls-1" d="M24.67,35.31a.88.88,0,0,0,.46,1.62.94.94,0,0,0,.46-.13.88.88,0,0,0-.92-1.49Zm0,0"/><path class="cls-1" d="M21.92,37a.88.88,0,0,0,.47,1.62.94.94,0,0,0,.46-.13A.88.88,0,0,0,21.92,37Zm0,0"/><path class="cls-1" d="M27.41,33.61a.87.87,0,1,0,1.19.29.86.86,0,0,0-1.19-.29Zm0,0"/><path class="cls-1" d="M30.14,31.91a.86.86,0,0,0-.27,1.2.88.88,0,0,0,.74.41.84.84,0,0,0,.46-.13.87.87,0,0,0-.93-1.48Zm0,0"/><path class="cls-1" d="M19,38.85a.88.88,0,0,0,0,1.23.87.87,0,0,0,1.24,0,.88.88,0,0,0,0-1.23.9.9,0,0,0-.62-.26.91.91,0,0,0-.62.26Zm0,0"/><path class="cls-1" d="M16.16,37.3a.87.87,0,0,0,.28,1.2.87.87,0,0,0,1.2-.28A.88.88,0,0,0,17.36,37a.89.89,0,0,0-1.2.29Zm0,0"/><path class="cls-1" d="M5.21,30.48a.88.88,0,0,0,.28,1.2.94.94,0,0,0,.46.13.87.87,0,1,0-.74-1.33Zm0,0"/><path class="cls-1" d="M13.43,35.6a.88.88,0,0,0,.28,1.2.93.93,0,0,0,.45.13.87.87,0,1,0-.73-1.33Zm0,0"/><path class="cls-1" d="M10.69,33.89a.87.87,0,0,0,.28,1.2.84.84,0,0,0,.45.13.88.88,0,0,0,.46-1.62.87.87,0,0,0-1.19.29Zm0,0"/><path class="cls-1" d="M8,32.19a.87.87,0,0,0,.27,1.2,1,1,0,0,0,.46.13.86.86,0,0,0,.74-.42.87.87,0,0,0-.27-1.2.88.88,0,0,0-1.2.29Zm0,0"/><path class="cls-1" d="M3.21,30.11a.88.88,0,0,0,0-1.75.9.9,0,0,0-.62.26.88.88,0,0,0,.62,1.49Zm0,0"/><path class="cls-1" d="M35.62,34.34l-16,9.95-16-9.95a.87.87,0,0,0-1.2.28.88.88,0,0,0,.28,1.2L19.18,46.05a.88.88,0,0,0,.92,0L36.53,35.82a.88.88,0,0,0,.28-1.2.85.85,0,0,0-1.19-.28Zm0,0"/><polygon class="cls-2" points="5.81 50.7 6.73 52.55 8.77 52.85 7.29 54.29 7.64 56.32 5.81 55.36 3.99 56.32 4.34 54.29 2.86 52.85 4.9 52.55 5.81 50.7"/><polygon class="cls-2" points="15.09 50.7 16.01 52.55 18.05 52.85 16.57 54.29 16.92 56.32 15.09 55.36 13.27 56.32 13.62 54.29 12.14 52.85 14.18 52.55 15.09 50.7"/><polygon class="cls-2" points="24.37 50.7 25.29 52.55 27.33 52.85 25.85 54.29 26.2 56.32 24.37 55.36 22.55 56.32 22.9 54.29 21.42 52.85 23.46 52.55 24.37 50.7"/><polygon class="cls-2" points="33.65 50.7 34.57 52.55 36.61 52.85 35.13 54.29 35.48 56.32 33.65 55.36 31.83 56.32 32.18 54.29 30.7 52.85 32.74 52.55 33.65 50.7"/></svg>