<svg id="Слой_1" data-name="Слой 1" xmlns="http://www.w3.org/2000/svg" viewBox="0 0 40 58"><defs><style>.cls-1{fill:#ed700e;}.cls-1,.cls-2{stroke:#ed700e;stroke-miterlimit:10;stroke-width:0.75px;}.cls-2,.cls-3{fill:none;}.cls-4{fill:#1d1d1b;}</style></defs><title>Иконки утп мобильные</title><polygon class="cls-1" points="7.32 50.79 8.24 52.63 10.28 52.93 8.8 54.37 9.15 56.41 7.32 55.45 5.5 56.41 5.85 54.37 4.37 52.93 6.41 52.63 7.32 50.79"/><polygon class="cls-1" points="16.6 50.79 17.52 52.63 19.56 52.93 18.08 54.37 18.43 56.41 16.6 55.45 14.78 56.41 15.13 54.37 13.65 52.93 15.69 52.63 16.6 50.79"/><polygon class="cls-2" points="25.88 50.79 26.8 52.63 28.84 52.93 27.36 54.37 27.71 56.41 25.88 55.45 24.06 56.41 24.41 54.37 22.93 52.93 24.97 52.63 25.88 50.79"/><polygon class="cls-2" points="35.16 50.79 36.08 52.63 38.12 52.93 36.64 54.37 36.99 56.41 35.16 55.45 33.34 56.41 33.69 54.37 32.21 52.93 34.25 52.63 35.16 50.79"/><path class="cls-3" d="M27,24.22a9.09,9.09,0,0,1-12.15-.56h0A8.87,8.87,0,0,1,12.6,20L6.73,23.61l14.52,9,14.52-9L29.88,20A8.88,8.88,0,0,1,27,24.22Z"/><path class="cls-4" d="M20.8,34.39a.87.87,0,0,0,.45.13.93.93,0,0,0,.45-.13l16.14-10a.86.86,0,0,0,.4-.73.87.87,0,0,0-.4-.73l-7.6-4.73a8.57,8.57,0,0,1-.36,1.8l5.89,3.66-14.52,9-14.52-9L12.6,20a9,9,0,0,1-.36-1.79L4.65,22.88a.87.87,0,0,0-.41.73.88.88,0,0,0,.42.73Z"/><path class="cls-4" d="M37.39,28.5a.86.86,0,0,0-.61.25.84.84,0,0,0-.25.6.85.85,0,0,0,.86.86A.84.84,0,0,0,38,30a.86.86,0,0,0,.25-.61.85.85,0,0,0-.85-.85Z"/><path class="cls-4" d="M34.24,30.3A.86.86,0,0,0,34,31.48a.88.88,0,0,0,.73.41.79.79,0,0,0,.45-.13.86.86,0,0,0-.91-1.46Z"/><path class="cls-4" d="M26.17,35.32a.86.86,0,0,0,.46,1.59.79.79,0,0,0,.45-.13.86.86,0,0,0-.91-1.46Z"/><path class="cls-4" d="M23.48,37a.86.86,0,0,0,.46,1.59.9.9,0,0,0,.45-.13A.86.86,0,0,0,23.48,37Z"/><path class="cls-4" d="M28.87,33.65a.86.86,0,0,0-.28,1.18.85.85,0,0,0,1.18.28A.86.86,0,0,0,30,33.93.84.84,0,0,0,28.87,33.65Z"/><path class="cls-4" d="M31.55,32A.86.86,0,0,0,32,33.57a.9.9,0,0,0,.45-.13A.86.86,0,0,0,31.55,32Z"/><path class="cls-4" d="M20.64,38.79a.86.86,0,0,0,.61,1.47.82.82,0,0,0,.6-.25.86.86,0,0,0-.6-1.47A.91.91,0,0,0,20.64,38.79Z"/><path class="cls-4" d="M17.83,37.27a.86.86,0,0,0,.27,1.18.84.84,0,0,0,.45.13.86.86,0,0,0,.73-.41.85.85,0,0,0-1.45-.9Z"/><path class="cls-4" d="M7.07,30.58a.85.85,0,0,0,.27,1.17.86.86,0,0,0,.45.13.84.84,0,0,0,.73-.41.85.85,0,0,0-.27-1.17A.86.86,0,0,0,7.07,30.58Z"/><path class="cls-4" d="M15.14,35.6a.86.86,0,0,0,.27,1.18.85.85,0,0,0,1.18-.28.85.85,0,1,0-1.45-.9Z"/><path class="cls-4" d="M12.45,33.92a.86.86,0,0,0,.27,1.18.84.84,0,0,0,.45.13.85.85,0,0,0,.73-.41.85.85,0,0,0-1.45-.9Z"/><path class="cls-4" d="M9.76,32.25A.86.86,0,0,0,10,33.43a.84.84,0,0,0,.45.13.86.86,0,1,0-.72-1.31Z"/><path class="cls-4" d="M5.11,30.21a.82.82,0,0,0,.6-.25A.86.86,0,0,0,6,29.35a.84.84,0,0,0-.25-.6.82.82,0,0,0-.6-.25.86.86,0,0,0-.61.25.84.84,0,0,0-.25.6A.86.86,0,0,0,4.5,30,.82.82,0,0,0,5.11,30.21Z"/><path class="cls-4" d="M36.94,34.37,21.25,44.14,5.56,34.37a.86.86,0,0,0-.91,1.45l16.14,10a.84.84,0,0,0,.9,0l16.14-10a.86.86,0,0,0,.27-1.18A.83.83,0,0,0,36.94,34.37Z"/><path d="M26.22,22.93a7.64,7.64,0,0,1-10,0A7.34,7.34,0,0,1,14,19.12L12.6,20a8.87,8.87,0,0,0,2.24,3.71h0A9.09,9.09,0,0,0,27,24.22,8.88,8.88,0,0,0,29.88,20l-1.36-.85A7.36,7.36,0,0,1,26.22,22.93Z"/><path d="M15,13.17l6.23-9,6.22,9.05a7.21,7.21,0,0,1,1.28,4l1.5.93a8.8,8.8,0,0,0-1.53-5.82l-6.85-10a.79.79,0,0,0-1.25,0l-6.85,10a8.81,8.81,0,0,0-1.52,5.83l1.49-.93A7.25,7.25,0,0,1,15,13.17Z"/><path d="M14,19.12a7.51,7.51,0,0,1-.22-1.89l-1.49.93A9,9,0,0,0,12.6,20Z"/><path d="M28.52,19.1l1.36.85a8.57,8.57,0,0,0,.36-1.8l-1.5-.93A7.38,7.38,0,0,1,28.52,19.1Z"/><path class="cls-4" d="M22.11,22.49A.57.57,0,0,1,22,21.36a3.8,3.8,0,0,0,2.17-1.27,3.76,3.76,0,0,0,.88-2.34.58.58,0,0,1,.59-.55.56.56,0,0,1,.55.58,4.91,4.91,0,0,1-4,4.69Z"/></svg>