<svg id="Слой_1" data-name="Слой 1" xmlns="http://www.w3.org/2000/svg" viewBox="0 0 60 80"><defs><style>.cls-1{fill:#1d1d1b;}.cls-2{fill:#ed700e;stroke:#ed700e;stroke-miterlimit:10;stroke-width:0.75px;}</style></defs><title>Иконки утп</title><path class="cls-1" d="M38.74,27l8.54-13.47a.75.75,0,0,0-.23-1L36.83,6a.72.72,0,0,0-.57-.1.75.75,0,0,0-.47.33L23.5,25.55a.75.75,0,0,0,.24,1l5.86,3.72a.74.74,0,0,0,.56.1l7-1.55a3.13,3.13,0,0,0,.32-.23Zm-2.08.46-6.52,1.46-5-3.15,4-6.23,8.94,5.68Z"/><polygon class="cls-1" points="24.94 31.52 26.21 34.23 31.14 31 24.94 31.52"/><polygon class="cls-1" points="30.1 33.24 31.64 34.25 33.16 30.98 30.1 33.24"/><path class="cls-1" d="M13,29.14,29.46,39.38a.94.94,0,0,0,.46.13.9.9,0,0,0,.45-.13L46.81,29.14a.87.87,0,0,0,.41-.74.86.86,0,0,0-.41-.74L30.37,17.43a.85.85,0,0,0-.92,0L13,27.66a.87.87,0,0,0,0,1.48Zm16.9-9.95L44.7,28.4,29.92,37.61,15.13,28.4Zm0,0"/><path class="cls-1" d="M46.35,33.38a.85.85,0,1,0,.62.25.89.89,0,0,0-.62-.25Zm0,0"/><path class="cls-1" d="M43.15,35.22a.86.86,0,0,0-.28,1.2.91.91,0,0,0,.75.41.79.79,0,0,0,.45-.13.87.87,0,0,0,.28-1.2.86.86,0,0,0-1.2-.28Zm0,0"/><path class="cls-1" d="M34.93,40.33a.87.87,0,0,0-.27,1.2.85.85,0,0,0,.74.41.84.84,0,0,0,.46-.13.87.87,0,0,0-.93-1.48Zm0,0"/><path class="cls-1" d="M32.19,42a.87.87,0,0,0,.47,1.61.79.79,0,0,0,.45-.13A.87.87,0,0,0,32.19,42Zm0,0"/><path class="cls-1" d="M37.67,38.63a.88.88,0,0,0-.28,1.2.87.87,0,0,0,.74.41.84.84,0,0,0,.46-.13.87.87,0,0,0,.28-1.2.86.86,0,0,0-1.2-.28Zm0,0"/><path class="cls-1" d="M40.41,36.92a.88.88,0,0,0,.46,1.62.84.84,0,0,0,.46-.13.88.88,0,0,0-.92-1.49Zm0,0"/><path class="cls-1" d="M29.3,43.86a.87.87,0,0,0,0,1.24.88.88,0,0,0,1.23,0,.87.87,0,0,0,0-1.24.88.88,0,0,0-1.23,0Zm0,0"/><path class="cls-1" d="M26.43,42.31a.87.87,0,0,0,.28,1.2.84.84,0,0,0,.46.13.87.87,0,1,0-.74-1.33Zm0,0"/><path class="cls-1" d="M15.48,35.49a.87.87,0,0,0,.28,1.2.84.84,0,0,0,.45.13.87.87,0,1,0-.73-1.33Zm0,0"/><path class="cls-1" d="M23.7,40.61a.87.87,0,0,0,.27,1.2.89.89,0,0,0,.46.13.85.85,0,0,0,.74-.41.87.87,0,1,0-1.47-.92Zm0,0"/><path class="cls-1" d="M21,38.9a.86.86,0,0,0,.27,1.2.89.89,0,0,0,.46.13A.87.87,0,1,0,21,38.9Zm0,0"/><path class="cls-1" d="M18.21,37.2a.87.87,0,0,0,.28,1.2.89.89,0,0,0,.46.13.87.87,0,0,0,.46-1.61.88.88,0,0,0-1.2.28Zm0,0"/><path class="cls-1" d="M13.48,35.12a.85.85,0,1,0-.62-.25.9.9,0,0,0,.62.25Zm0,0"/><path class="cls-1" d="M45.89,39.35l-16,9.95-16-9.95A.87.87,0,0,0,13,40.83L29.45,51.06a.88.88,0,0,0,.92,0L46.8,40.83a.87.87,0,0,0,.28-1.2.86.86,0,0,0-1.19-.28Zm0,0"/><polygon class="cls-2" points="16.08 55.72 16.99 57.57 19.03 57.87 17.56 59.3 17.91 61.34 16.08 60.38 14.25 61.34 14.6 59.3 13.13 57.87 15.17 57.57 16.08 55.72"/><polygon class="cls-2" points="25.36 55.72 26.27 57.57 28.31 57.87 26.84 59.3 27.19 61.34 25.36 60.38 23.53 61.34 23.88 59.3 22.41 57.87 24.45 57.57 25.36 55.72"/><polygon class="cls-2" points="34.64 55.72 35.55 57.57 37.59 57.87 36.12 59.3 36.47 61.34 34.64 60.38 32.81 61.34 33.16 59.3 31.69 57.87 33.73 57.57 34.64 55.72"/><polygon class="cls-2" points="43.92 55.72 44.83 57.57 46.87 57.87 45.4 59.3 45.75 61.34 43.92 60.38 42.09 61.34 42.44 59.3 40.97 57.87 43.01 57.57 43.92 55.72"/><path d="M3.81,67.61h.93v5.33H3.81V69.15L1.47,72.94H.54V67.61h.93v3.8Z"/><path d="M8.61,70.07a.79.79,0,0,1-.16.48A1.06,1.06,0,0,1,8,70.9a.91.91,0,0,1,.68.92,1,1,0,0,1-.44.87A2,2,0,0,1,7.05,73a2.18,2.18,0,0,1-.82-.15,1.41,1.41,0,0,1-.59-.44,1,1,0,0,1-.2-.66h.88a.46.46,0,0,0,.22.4.85.85,0,0,0,.54.17.82.82,0,0,0,.52-.15.5.5,0,0,0,.19-.4.47.47,0,0,0-.17-.42.81.81,0,0,0-.52-.13H6.47V70.6h.66c.39,0,.59-.17.59-.49a.44.44,0,0,0-.17-.38.73.73,0,0,0-.47-.13.89.89,0,0,0-.5.14.45.45,0,0,0-.2.37H5.5a1,1,0,0,1,.44-.86,1.73,1.73,0,0,1,1.11-.34,1.92,1.92,0,0,1,1.15.3A1,1,0,0,1,8.61,70.07Z"/><path d="M12.65,72.94h-.89v-1.6H10.21v1.6H9.32V69h.89v1.65h1.55V69h.89Z"/><path d="M13.28,70.93a2.25,2.25,0,0,1,.23-1.05,1.73,1.73,0,0,1,.64-.72,1.81,1.81,0,0,1,1-.25,1.73,1.73,0,0,1,1.31.52A2.05,2.05,0,0,1,17,70.8V71a2.38,2.38,0,0,1-.23,1,1.66,1.66,0,0,1-.64.72,1.92,1.92,0,0,1-1,.25,1.71,1.71,0,0,1-1.34-.56,2.12,2.12,0,0,1-.5-1.49Zm.89.07a1.59,1.59,0,0,0,.25,1,.82.82,0,0,0,.7.35.81.81,0,0,0,.7-.35,1.76,1.76,0,0,0,.25-1,1.58,1.58,0,0,0-.25-1,.84.84,0,0,0-.71-.36.82.82,0,0,0-.69.35A1.72,1.72,0,0,0,14.17,71Z"/><path d="M19.19,72.31a.79.79,0,0,0,.55-.2.66.66,0,0,0,.24-.48h.84a1.32,1.32,0,0,1-.23.69,1.46,1.46,0,0,1-.59.51,1.69,1.69,0,0,1-.8.19,1.7,1.7,0,0,1-1.32-.54A2.15,2.15,0,0,1,17.4,71V70.9a2.13,2.13,0,0,1,.48-1.45,1.68,1.68,0,0,1,1.32-.54,1.65,1.65,0,0,1,1.15.41,1.5,1.5,0,0,1,.47,1.08H20a.86.86,0,0,0-.23-.56.8.8,0,0,0-.56-.22.79.79,0,0,0-.67.32,1.62,1.62,0,0,0-.23,1V71a1.58,1.58,0,0,0,.23,1A.78.78,0,0,0,19.19,72.31Z"/><path d="M21.17,70.93a2.38,2.38,0,0,1,.23-1.05,1.75,1.75,0,0,1,.65-.72,1.81,1.81,0,0,1,1-.25,1.71,1.71,0,0,1,1.3.52,2,2,0,0,1,.54,1.37V71a2.38,2.38,0,0,1-.23,1,1.66,1.66,0,0,1-.64.72A1.94,1.94,0,0,1,23,73a1.71,1.71,0,0,1-1.34-.56A2.12,2.12,0,0,1,21.17,71Zm.89.07a1.66,1.66,0,0,0,.25,1,.84.84,0,0,0,.71.35.82.82,0,0,0,.7-.35,1.76,1.76,0,0,0,.25-1,1.58,1.58,0,0,0-.26-1,.81.81,0,0,0-.7-.36.82.82,0,0,0-.69.35A1.72,1.72,0,0,0,22.06,71Z"/><path d="M27.09,72.31a.81.81,0,0,0,.55-.2.65.65,0,0,0,.23-.48h.84a1.24,1.24,0,0,1-.23.69,1.44,1.44,0,0,1-.58.51,1.71,1.71,0,0,1-.8.19,1.68,1.68,0,0,1-1.32-.54A2.11,2.11,0,0,1,25.29,71V70.9a2.13,2.13,0,0,1,.48-1.45,1.7,1.7,0,0,1,1.32-.54,1.68,1.68,0,0,1,1.16.41,1.49,1.49,0,0,1,.46,1.08h-.84a.81.81,0,0,0-.23-.56.76.76,0,0,0-.55-.22.79.79,0,0,0-.67.32,1.54,1.54,0,0,0-.24,1V71a1.66,1.66,0,0,0,.23,1A.8.8,0,0,0,27.09,72.31Z"/><path d="M32.35,69.69H31.07v3.25h-.89V69.69H28.91V69h3.44Z"/><path d="M32.52,70.93a2.25,2.25,0,0,1,.23-1.05,1.68,1.68,0,0,1,.65-.72,1.76,1.76,0,0,1,1-.25,1.73,1.73,0,0,1,1.3.52,2.05,2.05,0,0,1,.54,1.37V71a2.38,2.38,0,0,1-.22,1,1.68,1.68,0,0,1-.65.72,1.92,1.92,0,0,1-1,.25A1.73,1.73,0,0,1,33,72.46a2.16,2.16,0,0,1-.5-1.49Zm.89.07a1.59,1.59,0,0,0,.25,1,.82.82,0,0,0,.7.35.81.81,0,0,0,.7-.35,1.76,1.76,0,0,0,.25-1,1.58,1.58,0,0,0-.25-1,.83.83,0,0,0-.7-.36.82.82,0,0,0-.7.35A1.72,1.72,0,0,0,33.41,71Z"/><path d="M39.28,69h.88v4h-.88V70.3l-1.55,2.64h-.89V69h.89v2.65Zm.42-1.52a.94.94,0,0,1-.33.75,1.24,1.24,0,0,1-.86.29,1.26,1.26,0,0,1-.86-.29,1,1,0,0,1-.32-.75H38a.52.52,0,0,0,.13.38.53.53,0,0,0,.38.13.46.46,0,0,0,.51-.51Z"/><path d="M42.37,71.38h-.45v1.56H41V69h.89v1.58h.39L43.41,69H44.5l-1.43,1.9,1.56,2.06H43.47Z"/><path d="M44.59,70.93a2.38,2.38,0,0,1,.23-1.05,1.68,1.68,0,0,1,.65-.72,1.81,1.81,0,0,1,1-.25,1.71,1.71,0,0,1,1.3.52,2.05,2.05,0,0,1,.54,1.37V71a2.38,2.38,0,0,1-.22,1,1.68,1.68,0,0,1-.65.72,1.92,1.92,0,0,1-1,.25,1.74,1.74,0,0,1-1.34-.56,2.16,2.16,0,0,1-.5-1.49Zm.89.07a1.59,1.59,0,0,0,.25,1,.82.82,0,0,0,.7.35.84.84,0,0,0,.71-.35,1.84,1.84,0,0,0,.25-1,1.58,1.58,0,0,0-.26-1,.82.82,0,0,0-.7-.36.85.85,0,0,0-.7.35A1.72,1.72,0,0,0,45.48,71Z"/><path d="M50.5,72.31a.83.83,0,0,0,.56-.2.69.69,0,0,0,.23-.48h.84a1.32,1.32,0,0,1-.23.69,1.46,1.46,0,0,1-.59.51,1.83,1.83,0,0,1-2.11-.35A2.11,2.11,0,0,1,48.71,71V70.9a2.13,2.13,0,0,1,.48-1.45,1.68,1.68,0,0,1,1.32-.54,1.63,1.63,0,0,1,1.15.41,1.5,1.5,0,0,1,.47,1.08h-.84a.86.86,0,0,0-.23-.56.79.79,0,0,0-.56-.22.76.76,0,0,0-.66.32,1.54,1.54,0,0,0-.24,1V71a1.66,1.66,0,0,0,.23,1A.79.79,0,0,0,50.5,72.31Z"/><path d="M55.77,69.69H54.48v3.25h-.89V69.69H52.32V69h3.45Z"/><path d="M57.17,70.24H58a2,2,0,0,1,.85.17,1.27,1.27,0,0,1,.55.47,1.3,1.3,0,0,1,.19.71,1.25,1.25,0,0,1-.43,1,1.69,1.69,0,0,1-1.15.37H56.28V69h.89Zm0,.72v1.27H58a.76.76,0,0,0,.51-.16.56.56,0,0,0,.19-.46.62.62,0,0,0-.19-.48.72.72,0,0,0-.5-.17Z"/></svg>