<svg id="Слой_1" data-name="Слой 1" xmlns="http://www.w3.org/2000/svg" viewBox="0 0 40 58"><defs><style>.cls-1{fill:#ed700e;}.cls-1,.cls-2{stroke:#ed700e;stroke-miterlimit:10;stroke-width:0.75px;}.cls-2,.cls-3{fill:none;}.cls-4{fill:#1d1d1b;}</style></defs><title>Иконки утп мобильные</title><polygon class="cls-1" points="6.41 50.79 7.32 52.63 9.36 52.93 7.88 54.37 8.23 56.41 6.41 55.45 4.58 56.41 4.93 54.37 3.45 52.93 5.49 52.63 6.41 50.79"/><polygon class="cls-1" points="15.69 50.79 16.6 52.63 18.64 52.93 17.16 54.37 17.51 56.41 15.69 55.45 13.86 56.41 14.21 54.37 12.73 52.93 14.77 52.63 15.69 50.79"/><polygon class="cls-1" points="24.97 50.79 25.88 52.63 27.92 52.93 26.44 54.37 26.79 56.41 24.97 55.45 23.14 56.41 23.49 54.37 22.01 52.93 24.05 52.63 24.97 50.79"/><polygon class="cls-2" points="34.25 50.79 35.16 52.63 37.2 52.93 35.72 54.37 36.07 56.41 34.25 55.45 32.42 56.41 32.77 54.37 31.29 52.93 33.33 52.63 34.25 50.79"/><path class="cls-3" d="M26.08,24.22a9.09,9.09,0,0,1-12.15-.56h0A8.77,8.77,0,0,1,11.69,20L5.81,23.61l14.52,9,14.52-9L29,20A8.88,8.88,0,0,1,26.08,24.22Z"/><path class="cls-4" d="M19.88,34.39a.84.84,0,0,0,.9,0l16.14-10a.87.87,0,0,0,.41-.73.86.86,0,0,0-.41-.73l-7.6-4.73A8.55,8.55,0,0,1,29,20l5.88,3.66-14.52,9-14.52-9L11.69,20a8.37,8.37,0,0,1-.37-1.79L3.73,22.88a.86.86,0,0,0-.4.73.85.85,0,0,0,.41.73Z"/><path class="cls-4" d="M36.47,28.5a.86.86,0,0,0-.61.25.88.88,0,0,0-.25.6.91.91,0,0,0,.25.61.87.87,0,0,0,1.22,0,.91.91,0,0,0,.25-.61.88.88,0,0,0-.25-.6A.86.86,0,0,0,36.47,28.5Z"/><path class="cls-4" d="M33.33,30.3a.86.86,0,0,0,.45,1.59.79.79,0,0,0,.45-.13.86.86,0,0,0-.9-1.46Z"/><path class="cls-4" d="M25.26,35.32A.85.85,0,0,0,25,36.5a.84.84,0,0,0,.73.41.78.78,0,0,0,.44-.13.86.86,0,1,0-.9-1.46Z"/><path class="cls-4" d="M22.57,37a.86.86,0,0,0-.28,1.18.88.88,0,0,0,.73.41.87.87,0,0,0,.45-.13.86.86,0,0,0,.27-1.18A.84.84,0,0,0,22.57,37Z"/><path class="cls-4" d="M28,33.65a.86.86,0,0,0-.28,1.18.85.85,0,0,0,.73.41.81.81,0,0,0,.45-.13.86.86,0,0,0,.27-1.18A.84.84,0,0,0,28,33.65Z"/><path class="cls-4" d="M30.64,32a.86.86,0,0,0-.28,1.18.88.88,0,0,0,.73.41.87.87,0,0,0,.45-.13.86.86,0,0,0,.27-1.18A.84.84,0,0,0,30.64,32Z"/><path class="cls-4" d="M19.72,38.79a.87.87,0,0,0,0,1.22.87.87,0,0,0,1.22,0,.86.86,0,0,0-.61-1.47A.93.93,0,0,0,19.72,38.79Z"/><path class="cls-4" d="M16.91,37.27a.86.86,0,0,0,.27,1.18.85.85,0,1,0,.9-1.45A.85.85,0,0,0,16.91,37.27Z"/><path class="cls-4" d="M6.15,30.58a.85.85,0,0,0,.28,1.17.84.84,0,0,0,1.17-.28.85.85,0,0,0-.27-1.17A.86.86,0,0,0,6.15,30.58Z"/><path class="cls-4" d="M14.22,35.6a.86.86,0,0,0,.28,1.18.84.84,0,0,0,1.17-.28.85.85,0,1,0-1.45-.9Z"/><path class="cls-4" d="M11.53,33.92a.85.85,0,0,0,.72,1.31.85.85,0,0,0,.45-1.58A.85.85,0,0,0,11.53,33.92Z"/><path class="cls-4" d="M8.84,32.25a.86.86,0,0,0,.27,1.18.85.85,0,0,0,1.18-.28A.86.86,0,0,0,10,32,.87.87,0,0,0,8.84,32.25Z"/><path class="cls-4" d="M4.19,30.21A.86.86,0,0,0,4.8,30a.91.91,0,0,0,.25-.61.88.88,0,0,0-.25-.6.87.87,0,0,0-1.22,0,.88.88,0,0,0-.25.6.91.91,0,0,0,.25.61A.84.84,0,0,0,4.19,30.21Z"/><path class="cls-4" d="M36,34.37,20.33,44.14,4.64,34.37a.86.86,0,0,0-.91,1.45l16.14,10a.84.84,0,0,0,.45.13.79.79,0,0,0,.45-.13l16.14-10a.86.86,0,0,0,.27-1.18A.83.83,0,0,0,36,34.37Z"/><path d="M25.3,22.93a7.63,7.63,0,0,1-10,0A7.43,7.43,0,0,1,13,19.12L11.69,20a8.77,8.77,0,0,0,2.24,3.71h0a9.09,9.09,0,0,0,12.15.56A8.88,8.88,0,0,0,29,20l-1.36-.85A7.44,7.44,0,0,1,25.3,22.93Z"/><path d="M14.09,13.17l6.23-9,6.23,9.05a7.29,7.29,0,0,1,1.28,4l1.49.93a8.79,8.79,0,0,0-1.52-5.82l-6.86-10a.79.79,0,0,0-1.25,0l-6.85,10a8.87,8.87,0,0,0-1.52,5.83l1.49-.93A7.32,7.32,0,0,1,14.09,13.17Z"/><path d="M13,19.12a7.51,7.51,0,0,1-.22-1.89l-1.49.93A8.37,8.37,0,0,0,11.69,20Z"/><path d="M27.61,19.1,29,20a8.55,8.55,0,0,0,.35-1.8l-1.49-.93A7.38,7.38,0,0,1,27.61,19.1Z"/><path class="cls-4" d="M21.2,22.49a.57.57,0,0,1-.11-1.13,3.78,3.78,0,0,0,3.05-3.61.57.57,0,0,1,.58-.55.56.56,0,0,1,.55.58,4.89,4.89,0,0,1-4,4.69Z"/></svg>